<svg width="64" height="64" viewBox="0 0 64 64" fill="none" xmlns="http://www.w3.org/2000/svg">
<path d="M8 22V8H18C23.5229 8 28 12.4771 28 18V60C28 62.2092 29.7908 64 32 64C34.2092 64 36 62.2092 36 60V34C36 28.4771 40.4771 24 46 24H56V38C56 43.5229 51.5229 48 46 48C43.7908 48 42 49.7908 42 52C42 54.2092 43.7908 56 46 56C55.9412 56 64 47.9412 64 38V22C64 18.6863 61.3137 16 58 16H46C42.2998 16 38.8601 17.1165 36 19.031V18C36 8.05884 27.9412 0 18 0H6C2.68628 0 0 2.68628 0 6V22C0 31.9412 8.05884 40 18 40C20.2092 40 22 38.2092 22 36C22 33.7908 20.2092 32 18 32C12.4771 32 8 27.5229 8 22Z" fill="#45A147"/>
</svg>
