<svg width="64" height="64" viewBox="0 0 64 64" fill="none" xmlns="http://www.w3.org/2000/svg">
<path d="M61.641 0C40.6668 0 17.9734 1.70051 8.67294 14.6166C4.45723 20.4723 3.2008 28.0328 4.8887 37.5562C11.1154 31.3168 21.0429 23.0584 37.5075 17.1797C39.345 16.5282 40.4491 19.1713 38.7287 20.0368C20.5199 29.1977 8.23549 43.0243 2.46311 55.2358C1.18364 58.4241 2.63809 62.0731 5.80574 63.4694C8.89369 64.8264 12.7746 63.5256 14.2455 60.1956C15.1372 58.1701 17.3712 54.7067 19.9011 50.9099C22.2932 51.1766 24.6147 51.1766 26.7987 51.1766C63.7749 51.1765 63.7749 14.2788 63.7749 2.0923C63.7749 0.912887 62.8203 0 61.641 0Z" fill="#00A750"/>
</svg>
