<svg width="214" height="60" viewBox="0 0 214 60" fill="none" xmlns="http://www.w3.org/2000/svg">
<g clip-path="url(#clip0_1111_2276)">
<path d="M0 9.6C0 4.29808 4.30613 0 9.61798 0H204.382C209.694 0 214 4.29808 214 9.6V50.4C214 55.702 209.694 60 204.382 60H9.61798C4.30613 60 0 55.702 0 50.4V9.6Z" fill="#1C9D40"/>
<path d="M43.0054 19.7324L42.9791 19.7169L42.918 19.6982C42.9427 19.7189 42.9733 19.7309 43.0054 19.7324Z" fill="#0D0C22"/>
<path d="M43.016 19.7279C43.0124 19.7275 43.0093 19.7267 43.0062 19.7256C43.0058 19.7277 43.0058 19.7299 43.0062 19.7321C43.0097 19.7316 43.0128 19.7301 43.016 19.7279Z" fill="#0D0C22"/>
<path d="M43.0059 19.7335H43.011V19.7305L43.0059 19.7335Z" fill="#0D0C22"/>
<path d="M43.3691 22.4705L43.4135 22.4453L43.4299 22.4359L43.4448 22.4199C43.417 22.4321 43.3911 22.4492 43.3691 22.4705Z" fill="#0D0C22"/>
<path d="M43.0817 19.7927L43.0382 19.7514L43.0088 19.7354C43.0249 19.7633 43.0507 19.7839 43.0817 19.7927Z" fill="#0D0C22"/>
<path d="M32.1509 46.4131C32.1161 46.428 32.0858 46.4515 32.0625 46.4813L32.0899 46.4637C32.1085 46.4468 32.1348 46.4264 32.1509 46.4131Z" fill="#0D0C22"/>
<path d="M38.4986 45.1661C38.4986 45.1269 38.4795 45.134 38.4841 45.2736C38.4841 45.2622 38.4888 45.2508 38.4908 45.2398C38.4934 45.2151 38.4955 45.1908 38.4986 45.1661Z" fill="#0D0C22"/>
<path d="M37.8432 46.4131C37.8085 46.428 37.7782 46.4515 37.7549 46.4813L37.7823 46.4637C37.8008 46.4468 37.8272 46.4264 37.8432 46.4131Z" fill="#0D0C22"/>
<path d="M27.6789 46.71C27.6526 46.6873 27.6204 46.672 27.5859 46.6665C27.6138 46.6802 27.6417 46.6936 27.6603 46.7038L27.6789 46.71Z" fill="#0D0C22"/>
<path d="M26.6734 45.748C26.6693 45.7072 26.6568 45.668 26.6367 45.6323C26.651 45.6692 26.6628 45.7072 26.6724 45.7461L26.6734 45.748Z" fill="#0D0C22"/>
<path d="M33.4301 28.5386C32.049 29.1291 30.4817 29.7986 28.4504 29.7986C27.6007 29.7969 26.7551 29.6805 25.9365 29.4525L27.3414 43.858C27.3911 44.4599 27.6658 45.0215 28.1108 45.4305C28.5558 45.8399 29.1386 46.067 29.7436 46.0666C29.7436 46.0666 31.7355 46.1701 32.4002 46.1701C33.1156 46.1701 35.2607 46.0666 35.2607 46.0666C35.8655 46.0666 36.4482 45.8395 36.8931 45.4305C37.338 45.0211 37.6126 44.4599 37.6623 43.858L39.167 27.9394C38.4946 27.71 37.816 27.5576 37.0509 27.5576C35.7278 27.5571 34.6617 28.0122 33.4301 28.5386Z" fill="white"/>
<path d="M21.5908 22.3931L21.6146 22.4153L21.6301 22.4246C21.6182 22.4127 21.605 22.4021 21.5908 22.3931Z" fill="#0D0C22"/>
<path d="M45.667 21.0633L45.4557 19.9975C45.2657 19.0413 44.8349 18.1378 43.8521 17.7922C43.5372 17.6816 43.1795 17.6341 42.938 17.4053C42.6965 17.1764 42.625 16.821 42.5693 16.4914C42.466 15.8864 42.3686 15.281 42.2626 14.6771C42.1711 14.1579 42.0985 13.5747 41.8601 13.0984C41.5499 12.4588 40.9059 12.0848 40.2655 11.8374C39.9373 11.715 39.6023 11.6115 39.2624 11.5274C37.6625 11.1059 35.9804 10.9509 34.3345 10.8626C32.3589 10.7537 30.3781 10.7865 28.4072 10.9607C26.9402 11.094 25.3952 11.2552 24.0012 11.7619C23.4916 11.9474 22.9667 12.1701 22.5792 12.5632C22.1039 13.0462 21.9487 13.7932 22.2958 14.3955C22.5425 14.8233 22.9605 15.1255 23.4037 15.3254C23.9811 15.583 24.5841 15.779 25.2027 15.9102C26.9252 16.2904 28.7093 16.4397 30.469 16.5033C32.4194 16.5819 34.3729 16.5182 36.314 16.3126C36.794 16.26 37.2732 16.1968 37.7515 16.1231C38.3148 16.0368 38.6763 15.3012 38.5103 14.7887C38.3117 14.176 37.7779 13.9384 37.1742 14.0308C37.0853 14.0448 36.9968 14.0577 36.9078 14.0706L36.8437 14.0799C36.6392 14.1057 36.4347 14.1299 36.2302 14.1523C35.8078 14.1977 35.3844 14.2349 34.9599 14.2638C34.0091 14.3299 33.0558 14.3604 32.103 14.362C31.1668 14.362 30.23 14.3356 29.2958 14.2742C28.8696 14.2463 28.4444 14.2108 28.0203 14.1677C27.8273 14.1476 27.6349 14.1264 27.4425 14.1026L27.2594 14.0794L27.2196 14.0737L27.0297 14.0463C26.6418 13.988 26.2538 13.9208 25.87 13.8397C25.8313 13.8311 25.7966 13.8096 25.7718 13.7787C25.747 13.7478 25.7335 13.7093 25.7335 13.6697C25.7335 13.6301 25.747 13.5917 25.7718 13.5608C25.7966 13.5299 25.8313 13.5084 25.87 13.4998H25.8773C26.2099 13.429 26.5451 13.3686 26.8813 13.3159C26.9934 13.2983 27.1058 13.2811 27.2185 13.2642H27.2216C27.4322 13.2503 27.6437 13.2126 27.8532 13.1877C29.6759 12.9984 31.5093 12.9339 33.3408 12.9946C34.23 13.0204 35.1186 13.0726 36.0037 13.1624C36.194 13.1821 36.3834 13.2028 36.5727 13.226C36.6451 13.2348 36.718 13.2451 36.7909 13.2539L36.9378 13.2751C37.3662 13.3388 37.7922 13.4161 38.216 13.507C38.844 13.6434 39.6502 13.6878 39.9298 14.3749C40.0185 14.5929 40.059 14.8352 40.1081 15.0641L40.1709 15.3559C40.1725 15.3612 40.1736 15.3665 40.1744 15.3719C40.3225 16.0607 40.4705 16.7495 40.6185 17.4383C40.6295 17.4892 40.6299 17.5418 40.6193 17.5928C40.6091 17.6437 40.5883 17.6921 40.5584 17.7346C40.5286 17.7773 40.4901 17.8133 40.4458 17.8404C40.4014 17.8675 40.3515 17.8852 40.3001 17.8924H40.2958L40.2054 17.9048L40.1159 17.9167C39.8324 17.9535 39.5485 17.988 39.2645 18.02C38.7048 18.0837 38.1443 18.1388 37.5829 18.1853C36.4673 18.278 35.3495 18.3388 34.2295 18.3677C33.6588 18.3828 33.0882 18.3899 32.5179 18.3888C30.2476 18.3871 27.9793 18.2553 25.7242 17.9942C25.48 17.9652 25.2359 17.9343 24.9917 17.9027C25.181 17.927 24.8541 17.8841 24.7879 17.8748C24.6328 17.8532 24.4776 17.8306 24.3224 17.8072C23.8015 17.7292 23.2837 17.6331 22.7639 17.5489C22.1354 17.4455 21.5344 17.4972 20.9659 17.8072C20.4993 18.0622 20.1216 18.4533 19.8833 18.9282C19.6381 19.4344 19.5652 19.9857 19.4555 20.5296C19.3458 21.0736 19.1751 21.6589 19.2398 22.2174C19.3789 23.4226 20.2226 24.4021 21.4361 24.6211C22.5777 24.8277 23.7255 24.9951 24.8764 25.1377C29.3974 25.6907 33.9648 25.7568 38.5 25.335C38.8693 25.3006 39.2381 25.263 39.6062 25.2224C39.7213 25.2098 39.8379 25.223 39.9471 25.2612C40.0562 25.2993 40.1556 25.3613 40.2376 25.4427C40.3197 25.5242 40.3829 25.6229 40.4218 25.7317C40.4607 25.8406 40.4748 25.9567 40.463 26.0717L40.348 27.1865C40.1167 29.4392 39.8854 31.6917 39.6541 33.9441C39.4127 36.3094 39.1696 38.6746 38.9252 41.0394C38.8562 41.7057 38.7872 42.3715 38.7182 43.0374C38.652 43.6927 38.6427 44.3692 38.5181 45.017C38.3215 46.0355 37.631 46.6613 36.6234 46.89C35.7002 47.0998 34.7572 47.21 33.8105 47.2186C32.761 47.2241 31.712 47.1778 30.6625 47.1833C29.5421 47.1896 28.1698 47.0864 27.3049 46.2535C26.5451 45.5221 26.4401 44.3766 26.3366 43.3864C26.1987 42.0755 26.0619 40.7645 25.9264 39.4535L25.166 32.165L24.6741 27.4489C24.6659 27.3709 24.6576 27.2939 24.6498 27.2154C24.5909 26.6529 24.192 26.1022 23.5636 26.1306C23.0256 26.1543 22.4142 26.611 22.4773 27.2154L22.842 30.7117L23.5961 37.9441C23.811 39.9986 24.0253 42.0531 24.2391 44.108C24.2805 44.5017 24.3193 44.8966 24.3627 45.29C24.5991 47.4413 26.244 48.6006 28.281 48.9268C29.4707 49.1182 30.6894 49.1574 31.8966 49.177C33.4443 49.2017 35.0074 49.2613 36.5297 48.9813C38.7855 48.568 40.4779 47.0637 40.7194 44.73C40.7885 44.0566 40.8577 43.3825 40.9264 42.7088C41.1557 40.4798 41.3846 38.2506 41.6135 36.0214L42.3611 28.7373L42.7043 25.3991C42.7212 25.2335 42.7915 25.0779 42.9038 24.9552C43.0165 24.8325 43.1657 24.7492 43.3291 24.7177C43.9742 24.5921 44.5907 24.3778 45.0497 23.8875C45.78 23.1069 45.9253 22.0892 45.667 21.0633ZM21.403 21.7834C21.4128 21.7788 21.3947 21.863 21.387 21.9023C21.3854 21.8428 21.3885 21.7901 21.403 21.7834ZM21.4656 22.267C21.4707 22.2633 21.4863 22.284 21.5023 22.3088C21.478 22.2861 21.4625 22.269 21.465 22.267H21.4656ZM21.5271 22.3481C21.5613 22.4095 21.5494 22.3858 21.5271 22.3481ZM21.6507 22.4483H21.6538C21.6538 22.4519 21.6595 22.4555 21.6616 22.4591C21.6582 22.4552 21.6544 22.4515 21.6502 22.4483H21.6507ZM43.2992 22.2984C43.0675 22.5185 42.7181 22.6208 42.3733 22.672C38.5041 23.2454 34.5786 23.5357 30.6671 23.4076C27.8677 23.312 25.0977 23.0015 22.3263 22.6105C22.0547 22.5723 21.7604 22.5227 21.5737 22.3228C21.2219 21.9456 21.3947 21.1862 21.4863 20.7306C21.57 20.3132 21.7304 19.7568 22.2275 19.6974C23.0034 19.6065 23.9045 19.9335 24.6721 20.0497C25.5962 20.1906 26.5239 20.3033 27.4549 20.3881C31.4285 20.7497 35.4688 20.6934 39.4248 20.1644C40.1458 20.0676 40.8643 19.9552 41.5801 19.8271C42.2182 19.7129 42.925 19.4985 43.3106 20.1582C43.5749 20.6076 43.6098 21.209 43.569 21.7168C43.5564 21.938 43.4598 22.1461 43.2984 22.2984H43.2992Z" fill="#0D0C22"/>
<path fill-rule="evenodd" clip-rule="evenodd" d="M66.767 33.0352C66.5412 33.4658 66.2306 33.8409 65.8352 34.1591C65.4398 34.4776 64.9788 34.7369 64.4514 34.9365C63.9245 35.1367 63.394 35.2709 62.8608 35.3394C62.3271 35.4081 61.8092 35.4021 61.3078 35.3206C60.8056 35.2396 60.3784 35.0742 60.0273 34.8241L60.4231 30.7215C60.7867 30.5967 61.2446 30.4686 61.7971 30.3374C62.3491 30.2065 62.9169 30.1126 63.5008 30.0565C64.0847 30.0002 64.6364 30.0068 65.1574 30.0753C65.6781 30.144 66.0892 30.3094 66.3904 30.5718C66.5537 30.7215 66.692 30.8838 66.8047 31.0587C66.9177 31.2337 66.9865 31.4148 67.012 31.6021C67.0744 32.1266 66.9931 32.6043 66.767 33.0352ZM61.0251 24.2959C61.2886 24.1336 61.6058 23.9898 61.9757 23.8648C62.346 23.7403 62.7257 23.6525 63.1148 23.6027C63.5036 23.553 63.8833 23.5463 64.2539 23.5839C64.6238 23.6214 64.9505 23.7244 65.2328 23.8929C65.5152 24.0616 65.7252 24.3052 65.8634 24.6234C66.0013 24.9422 66.039 25.345 65.9761 25.832C65.9263 26.2191 65.772 26.5471 65.5152 26.8155C65.258 27.0842 64.9438 27.3088 64.574 27.49C64.2037 27.6713 63.8114 27.8148 63.3975 27.9206C62.9829 28.0271 62.5843 28.1053 62.2019 28.1549C61.819 28.2051 61.4865 28.2365 61.2041 28.2486C60.9218 28.2612 60.7365 28.2673 60.6485 28.2673L61.0251 24.2959ZM68.8002 30.3843C68.5995 29.9474 68.3297 29.5633 67.9909 29.232C67.652 28.9012 67.2499 28.6609 66.7858 28.511C66.9865 28.3486 67.1844 28.0927 67.3791 27.7428C67.5735 27.3935 67.7396 27.0122 67.8778 26.6001C68.0156 26.1878 68.1103 25.7728 68.1601 25.3543C68.21 24.936 68.1911 24.5769 68.104 24.2769C67.89 23.5278 67.5546 22.9407 67.0964 22.516C66.6382 22.0916 66.1049 21.798 65.4963 21.6355C64.8873 21.4736 64.2162 21.4389 63.482 21.5326C62.7477 21.6262 61.9977 21.8104 61.2324 22.0851C61.2324 22.0229 61.2387 21.9573 61.2513 21.8886C61.2634 21.8202 61.2697 21.7481 61.2697 21.673C61.2697 21.4858 61.1759 21.3236 60.9874 21.186C60.7993 21.0487 60.5829 20.9676 60.3383 20.9424C60.0933 20.9177 59.855 20.9705 59.6225 21.1017C59.3904 21.2329 59.2302 21.4736 59.1427 21.8227C59.0421 22.9469 58.9416 24.1148 58.8415 25.326C58.741 26.5376 58.6342 27.7616 58.5215 28.9982C58.4084 30.2345 58.2953 31.4616 58.1826 32.6792C58.0695 33.897 57.9564 35.0677 57.8438 36.1916C57.8814 36.5289 57.9753 36.7913 58.1261 36.9786C58.2765 37.1661 58.4524 37.2785 58.653 37.3158C58.8537 37.3534 59.0641 37.3187 59.2836 37.2127C59.5031 37.1069 59.6947 36.9222 59.8581 36.6601C60.3599 36.9349 60.925 37.1129 61.5524 37.1942C62.1799 37.2752 62.8164 37.2752 63.4635 37.1942C64.1094 37.1129 64.7463 36.96 65.3738 36.735C66.0013 36.5104 66.5726 36.2292 67.087 35.8922C67.6018 35.5549 68.0345 35.1706 68.3863 34.74C68.7373 34.3089 68.9698 33.8437 69.0825 33.3444C69.1956 32.8322 69.227 32.3203 69.1767 31.8081C69.1265 31.2962 69.0008 30.8218 68.8002 30.3843Z" fill="white"/>
<path fill-rule="evenodd" clip-rule="evenodd" d="M87.1675 40.2753C87.0988 40.6874 87.001 41.1215 86.8757 41.5776C86.7501 42.0329 86.6028 42.4486 86.4336 42.8235C86.264 43.198 86.0759 43.5004 85.8689 43.7317C85.6616 43.9627 85.4386 44.0596 85.2002 44.0223C85.0122 43.9968 84.8928 43.8784 84.8429 43.6662C84.7923 43.4537 84.7923 43.1913 84.8429 42.8796C84.8928 42.567 84.9898 42.2141 85.1343 41.8208C85.2788 41.4274 85.4547 41.0368 85.6616 40.6502C85.8689 40.2627 86.1041 39.8913 86.3676 39.5353C86.6311 39.1797 86.9071 38.8828 87.1957 38.6456C87.2586 38.7205 87.2868 38.9078 87.2806 39.2077C87.2739 39.5074 87.2366 39.8635 87.1675 40.2753ZM93.5498 32.145C93.3801 31.9577 93.1732 31.8517 92.9282 31.8265C92.6836 31.8015 92.4354 31.9389 92.1849 32.2386C92.0215 32.5383 91.8142 32.8256 91.5633 33.1004C91.3124 33.3753 91.0521 33.6249 90.7823 33.8497C90.5122 34.0743 90.255 34.2682 90.0103 34.4304C89.7657 34.5929 89.5741 34.7115 89.4363 34.7864C89.386 34.3869 89.3573 33.956 89.3514 33.4937C89.3448 33.0317 89.3546 32.5635 89.3797 32.0888C89.417 31.4144 89.4956 30.7339 89.6149 30.0468C89.7343 29.36 89.9067 28.6855 90.1328 28.0233C90.1328 27.6739 90.0508 27.3897 89.8878 27.171C89.7245 26.9526 89.527 26.815 89.2949 26.7589C89.0624 26.7028 88.8245 26.734 88.5795 26.8526C88.3349 26.9714 88.1248 27.1869 87.9489 27.4988C87.7985 27.9111 87.6257 28.3731 87.4313 28.8851C87.2366 29.3973 87.0171 29.9187 86.7725 30.4494C86.5274 30.9806 86.2545 31.4956 85.9534 31.995C85.6522 32.4948 85.3228 32.9383 84.965 33.3252C84.6073 33.7124 84.2182 34.0154 83.798 34.2338C83.3771 34.4524 82.9228 34.5492 82.4332 34.5242C82.207 34.4617 82.0436 34.2932 81.9435 34.0182C81.843 33.7437 81.7833 33.4 81.7648 32.9879C81.746 32.5758 81.7649 32.1231 81.821 31.6297C81.8775 31.1365 81.9529 30.6462 82.0472 30.1592C82.141 29.672 82.2447 29.21 82.3574 28.7729C82.4705 28.3359 82.5769 27.9672 82.6774 27.6675C82.8282 27.3055 82.8282 27.0023 82.6774 26.7589C82.527 26.5153 82.3201 26.3532 82.0566 26.2717C81.7931 26.1907 81.5167 26.194 81.2281 26.2812C80.9395 26.3687 80.7322 26.5621 80.6069 26.8618C80.3933 27.3742 80.1985 27.9484 80.023 28.5854C79.8475 29.2224 79.7061 29.8814 79.5997 30.5619C79.4929 31.2428 79.4328 31.9173 79.4207 32.5853C79.4199 32.6288 79.4218 32.6702 79.4218 32.7134C79.1482 33.4395 78.8874 33.9883 78.6397 34.3555C78.3196 34.8303 77.9584 35.0364 77.5571 34.9737C77.3808 34.8988 77.2654 34.7241 77.2088 34.4491C77.1519 34.1746 77.1334 33.8374 77.1519 33.4374C77.1711 33.0381 77.2182 32.5853 77.2932 32.0793C77.369 31.5736 77.4625 31.0491 77.5756 30.5057C77.6886 29.9622 77.808 29.4163 77.9333 28.8666C78.0589 28.3171 78.1716 27.7987 78.2725 27.3115C78.26 26.8744 78.1312 26.5405 77.8862 26.3093C77.6419 26.0785 77.2995 25.9879 76.8605 26.0376C76.5594 26.1626 76.3363 26.3252 76.1922 26.5248C76.0477 26.7244 75.9315 26.9807 75.8439 27.2927C75.7933 27.4553 75.7183 27.7799 75.6177 28.2671C75.5172 28.7539 75.3888 29.3131 75.2318 29.9437C75.0751 30.5747 74.8898 31.2333 74.6765 31.9201C74.4633 32.6069 74.2246 33.2287 73.9615 33.7841C73.6976 34.3398 73.409 34.7864 73.0953 35.1236C72.7816 35.4606 72.4427 35.5982 72.0787 35.5357C71.8777 35.4982 71.7493 35.2921 71.6927 34.9176C71.6362 34.5428 71.6271 34.081 71.6644 33.5313C71.7021 32.9818 71.7775 32.379 71.8902 31.7235C72.0033 31.0678 72.1191 30.4466 72.2385 29.8593C72.3579 29.2725 72.4678 28.7539 72.5684 28.3045C72.6685 27.8548 72.7376 27.5551 72.7753 27.4054C72.7753 27.0432 72.6932 26.753 72.5307 26.5341C72.3673 26.3159 72.1698 26.1783 71.9373 26.122C71.7049 26.0659 71.4665 26.097 71.2223 26.2156C70.9773 26.3344 70.7672 26.55 70.5913 26.8618C70.5285 27.1991 70.4468 27.5896 70.3467 28.0328C70.2462 28.476 70.1492 28.9319 70.0549 29.4004C69.9607 29.8688 69.8727 30.3277 69.7915 30.7774C69.7098 31.2271 69.6501 31.6204 69.6124 31.9577C69.5873 32.2198 69.559 32.5416 69.528 32.9224C69.4962 33.3036 69.4805 33.7062 69.4805 34.1306C69.4805 34.5556 69.5119 34.977 69.5751 35.3953C69.6375 35.8138 69.7506 36.1979 69.9136 36.5473C70.0765 36.8971 70.3058 37.1842 70.6011 37.409C70.8956 37.6339 71.269 37.7586 71.721 37.7839C72.1851 37.8086 72.5899 37.7746 72.9355 37.6807C73.2802 37.587 73.594 37.4402 73.8767 37.2403C74.159 37.0409 74.4162 36.8035 74.6487 36.5285C74.8803 36.254 75.1096 35.9543 75.3354 35.6294C75.549 36.1042 75.8251 36.4724 76.1639 36.7348C76.5028 36.9969 76.8605 37.1533 77.2371 37.203C77.6133 37.2526 77.9965 37.2001 78.3856 37.0437C78.7743 36.8878 79.1258 36.6224 79.4395 36.2475C79.6464 36.0177 79.8412 35.7565 80.0242 35.4678C80.1019 35.603 80.1844 35.7335 80.2775 35.854C80.5849 36.254 81.0023 36.5285 81.5296 36.6784C82.0943 36.8284 82.646 36.8536 83.1859 36.7535C83.7254 36.6537 84.2402 36.4724 84.7294 36.2102C85.2191 35.9479 85.6738 35.6327 86.0947 35.2641C86.5149 34.8957 86.882 34.5119 87.1957 34.1119C87.1832 34.3992 87.1769 34.6711 87.1769 34.9268C87.1769 35.183 87.1706 35.4606 87.1584 35.7606C86.5306 36.1979 85.9377 36.7224 85.3793 37.3342C84.8205 37.9459 84.3309 38.5986 83.9107 39.2917C83.4902 39.9847 83.1608 40.6874 82.9228 41.3992C82.6841 42.1113 82.5678 42.7764 82.5741 43.3949C82.5804 44.0129 82.7277 44.5529 83.0167 45.0149C83.3049 45.4772 83.7757 45.8078 84.4283 46.0078C85.1064 46.2204 85.7021 46.2262 86.2172 46.0266C86.7316 45.8266 87.18 45.4957 87.5629 45.0337C87.9457 44.5717 88.2595 44.0129 88.5045 43.3572C88.7491 42.7015 88.9435 42.0176 89.088 41.3059C89.2321 40.5941 89.3232 39.8941 89.3609 39.2077C89.3986 38.5206 89.3986 37.9084 89.3609 37.3715C90.4403 36.922 91.325 36.3538 92.0153 35.6667C92.7056 34.9803 93.2765 34.2557 93.7284 33.4937C93.8663 33.3064 93.9134 33.0816 93.8698 32.8194C93.8254 32.5571 93.719 32.3322 93.5498 32.145Z" fill="white"/>
<path fill-rule="evenodd" clip-rule="evenodd" d="M117.297 30.9466C117.335 30.6595 117.391 30.3565 117.466 30.038C117.542 29.7195 117.636 29.4103 117.749 29.1106C117.862 28.8109 117.994 28.5519 118.145 28.3332C118.295 28.1148 118.455 27.9587 118.624 27.8648C118.794 27.7714 118.966 27.7806 119.142 27.8928C119.33 28.0055 119.446 28.2426 119.491 28.6046C119.534 28.9673 119.491 29.3542 119.359 29.7663C119.227 30.1787 118.992 30.5656 118.653 30.9278C118.314 31.2903 117.856 31.5272 117.278 31.6396C117.253 31.4652 117.26 31.2339 117.297 30.9466ZM123.82 31.7145C123.613 31.6525 123.416 31.6461 123.227 31.6959C123.039 31.7459 122.92 31.877 122.87 32.0896C122.769 32.489 122.609 32.8981 122.389 33.3164C122.17 33.7349 121.9 34.1313 121.58 34.5061C121.26 34.8807 120.899 35.2118 120.498 35.4989C120.096 35.7862 119.676 35.9923 119.236 36.117C118.797 36.2546 118.433 36.2701 118.145 36.1639C117.856 36.0581 117.627 35.8768 117.457 35.6208C117.288 35.3648 117.165 35.0556 117.09 34.6934C117.015 34.3312 116.971 33.9567 116.958 33.5692C117.674 33.6194 118.311 33.4916 118.869 33.1852C119.427 32.8796 119.901 32.4734 120.291 31.9676C120.679 31.4619 120.975 30.8936 121.175 30.2628C121.376 29.6323 121.489 29.0046 121.514 28.38C121.527 27.793 121.439 27.2967 121.251 26.8908C121.062 26.4851 120.808 26.1692 120.488 25.9447C120.168 25.7198 119.801 25.5886 119.387 25.5513C118.973 25.5137 118.552 25.5701 118.125 25.7198C117.611 25.8947 117.175 26.1787 116.817 26.5723C116.459 26.9657 116.161 27.4217 115.923 27.9399C115.685 28.4582 115.496 29.017 115.358 29.6164C115.22 30.216 115.12 30.8061 115.057 31.387C115.001 31.9082 114.97 32.4066 114.96 32.8876C114.933 32.9487 114.907 33.0074 114.878 33.0728C114.683 33.5165 114.457 33.9505 114.2 34.3749C113.943 34.7997 113.657 35.1557 113.344 35.4428C113.03 35.7301 112.704 35.8299 112.365 35.7425C112.164 35.6928 112.054 35.4613 112.036 35.0494C112.017 34.6371 112.038 34.1252 112.101 33.5132C112.164 32.9014 112.236 32.239 112.318 31.5272C112.399 30.8154 112.44 30.135 112.44 29.4854C112.44 28.9233 112.333 28.3834 112.12 27.8648C111.906 27.3469 111.615 26.9157 111.245 26.5723C110.875 26.2287 110.445 26.0007 109.955 25.8886C109.466 25.7759 108.939 25.851 108.374 26.1132C107.809 26.3756 107.36 26.7439 107.028 27.2185C106.695 27.6934 106.391 28.1927 106.115 28.7173C106.014 28.3175 105.867 27.9463 105.672 27.6026C105.478 27.2592 105.239 26.9595 104.957 26.7033C104.674 26.4476 104.357 26.2477 104.006 26.1039C103.655 25.9606 103.284 25.8886 102.895 25.8886C102.519 25.8886 102.171 25.9606 101.851 26.1039C101.531 26.2477 101.239 26.4316 100.975 26.6565C100.712 26.8815 100.473 27.1342 100.26 27.4153C100.047 27.6963 99.858 27.9743 99.6951 28.2488C99.6695 27.9242 99.6417 27.6402 99.6106 27.3963C99.5788 27.153 99.5223 26.9469 99.441 26.7784C99.3593 26.6096 99.2435 26.4818 99.0927 26.3943C98.9419 26.3071 98.7287 26.2631 98.4527 26.2631C98.3145 26.2631 98.1763 26.2912 98.0384 26.3472C97.9002 26.4036 97.7777 26.4818 97.6713 26.5816C97.5645 26.6819 97.4832 26.8033 97.4267 26.9469C97.3701 27.0905 97.3548 27.2561 97.3795 27.4434C97.3921 27.581 97.4267 27.7462 97.4832 27.9399C97.5394 28.1336 97.5928 28.3867 97.643 28.6985C97.6933 29.0108 97.7341 29.3887 97.7655 29.8319C97.7969 30.2754 97.806 30.8187 97.7938 31.4619C97.7809 32.1052 97.7341 32.8574 97.6525 33.7192C97.5708 34.581 97.442 35.5801 97.2665 36.7165C97.2413 36.9788 97.3419 37.1913 97.568 37.3536C97.7938 37.5157 98.051 37.6094 98.3396 37.6345C98.6282 37.6595 98.9015 37.6094 99.1587 37.4848C99.4159 37.3596 99.5635 37.1412 99.6008 36.8291C99.6385 36.2421 99.7108 35.6177 99.8176 34.9556C99.924 34.2939 100.056 33.6382 100.213 32.9886C100.37 32.3393 100.548 31.7212 100.749 31.1339C100.95 30.5468 101.173 30.0287 101.418 29.579C101.663 29.1294 101.917 28.7705 102.18 28.5019C102.444 28.2334 102.72 28.0991 103.009 28.0991C103.36 28.0991 103.633 28.2581 103.827 28.5766C104.022 28.8953 104.16 29.3045 104.242 29.8036C104.323 30.3035 104.361 30.8501 104.355 31.4431C104.348 32.0363 104.323 32.6076 104.279 33.1571C104.235 33.7068 104.185 34.1969 104.129 34.6278C104.072 35.0587 104.031 35.3556 104.006 35.5176C104.006 35.805 104.116 36.0327 104.336 36.2014C104.555 36.3699 104.8 36.47 105.07 36.5011C105.34 36.5325 105.594 36.4823 105.832 36.3512C106.071 36.2199 106.209 35.9987 106.247 35.6861C106.372 34.787 106.545 33.8849 106.764 32.9794C106.984 32.0739 107.235 31.2622 107.517 30.544C107.8 29.8257 108.113 29.2387 108.458 28.7829C108.804 28.3273 109.171 28.0991 109.56 28.0991C109.761 28.0991 109.914 28.2367 110.021 28.5112C110.128 28.7859 110.181 29.1605 110.181 29.6352C110.181 29.985 110.153 30.3441 110.097 30.7125C110.04 31.0809 109.974 31.4619 109.899 31.8552C109.823 32.2488 109.757 32.6514 109.701 33.0635C109.645 33.4759 109.616 33.9065 109.616 34.3562C109.616 34.6685 109.648 35.0307 109.711 35.4428C109.773 35.8547 109.892 36.2454 110.068 36.6135C110.244 36.9821 110.485 37.2942 110.793 37.5502C111.101 37.8061 111.493 37.9343 111.969 37.9343C112.685 37.9343 113.318 37.7812 113.871 37.4753C114.423 37.1694 114.897 36.7699 115.292 36.2765C115.313 36.2506 115.332 36.223 115.352 36.1974C115.382 36.2703 115.409 36.3476 115.443 36.417C115.712 36.9665 116.08 37.3909 116.544 37.6909C117.008 37.9906 117.554 38.156 118.182 38.1874C118.809 38.2183 119.493 38.1028 120.234 37.8406C120.786 37.6407 121.266 37.3909 121.674 37.0912C122.082 36.7916 122.449 36.4263 122.775 35.9954C123.102 35.5645 123.4 35.068 123.67 34.5061C123.94 33.9438 124.212 33.3009 124.488 32.5763C124.539 32.3769 124.492 32.1988 124.347 32.0425C124.203 31.8866 124.027 31.7772 123.82 31.7145Z" fill="white"/>
<path fill-rule="evenodd" clip-rule="evenodd" d="M134.052 29.6247C133.989 29.9934 133.905 30.3995 133.798 30.8425C133.691 31.286 133.557 31.745 133.393 32.2196C133.23 32.6942 133.029 33.122 132.791 33.5027C132.553 33.884 132.279 34.1865 131.972 34.4114C131.664 34.6362 131.31 34.7298 130.908 34.6923C130.707 34.6676 130.554 34.5302 130.447 34.2802C130.34 34.0306 130.284 33.7119 130.277 33.3247C130.271 32.9378 130.306 32.5131 130.381 32.0509C130.457 31.5891 130.572 31.1361 130.73 30.6926C130.886 30.2496 131.078 29.8403 131.303 29.4655C131.53 29.0909 131.79 28.8005 132.085 28.5945C132.38 28.3884 132.703 28.2919 133.054 28.304C133.406 28.3166 133.782 28.4913 134.184 28.8285C134.159 28.9911 134.115 29.2566 134.052 29.6247ZM140.745 31.0579C140.55 30.958 140.349 30.9364 140.142 30.9925C139.935 31.0486 139.788 31.2392 139.7 31.5639C139.65 31.9137 139.537 32.3256 139.361 32.8002C139.185 33.2748 138.969 33.7247 138.712 34.149C138.454 34.5737 138.159 34.9266 137.827 35.2075C137.494 35.4887 137.14 35.6168 136.763 35.5914C136.449 35.5667 136.229 35.4074 136.105 35.1139C135.979 34.8204 135.913 34.4522 135.907 34.0085C135.9 33.5655 135.944 33.0659 136.038 32.51C136.132 31.9544 136.246 31.4018 136.377 30.8518C136.509 30.3026 136.644 29.7747 136.782 29.2689C136.92 28.7632 137.033 28.3354 137.121 27.9858C137.221 27.6735 137.19 27.4083 137.027 27.1894C136.864 26.9712 136.66 26.8148 136.415 26.7212C136.17 26.6275 135.922 26.6025 135.671 26.6463C135.42 26.69 135.257 26.8243 135.182 27.0489C134.441 26.412 133.729 26.0685 133.045 26.0186C132.361 25.9687 131.73 26.1187 131.153 26.4683C130.576 26.8179 130.064 27.3236 129.619 27.9858C129.173 28.6479 128.812 29.369 128.536 30.1495C128.26 30.93 128.088 31.7264 128.018 32.5381C127.949 33.3499 128.003 34.09 128.179 34.7581C128.355 35.4262 128.665 35.9728 129.11 36.3971C129.556 36.8218 130.162 37.0343 130.927 37.0343C131.266 37.0343 131.592 36.9656 131.906 36.8282C132.22 36.6906 132.509 36.5283 132.772 36.341C133.036 36.1537 133.268 35.9569 133.469 35.7509C133.669 35.5448 133.826 35.3732 133.939 35.2356C134.027 35.6853 134.171 36.0665 134.373 36.3786C134.573 36.6906 134.802 36.947 135.059 37.1464C135.316 37.3461 135.587 37.4929 135.869 37.5868C136.151 37.6805 136.425 37.7273 136.688 37.7273C137.278 37.7273 137.83 37.5274 138.345 37.1276C138.859 36.7284 139.32 36.2378 139.728 35.6572C140.136 35.0764 140.472 34.4646 140.735 33.8212C140.999 33.1781 141.175 32.6067 141.263 32.1069C141.351 31.9196 141.334 31.7231 141.215 31.5171C141.096 31.311 140.939 31.1582 140.745 31.0579Z" fill="white"/>
<path fill-rule="evenodd" clip-rule="evenodd" d="M174.632 41.4004C174.526 41.8247 174.359 42.1843 174.133 42.4777C173.907 42.771 173.625 42.924 173.286 42.9369C173.073 42.9491 172.909 42.8365 172.796 42.5996C172.684 42.362 172.605 42.0561 172.561 41.6816C172.517 41.3067 172.498 40.8883 172.505 40.4263C172.511 39.9643 172.53 39.5083 172.561 39.0587C172.592 38.6093 172.63 38.1905 172.674 37.8036C172.718 37.4162 172.752 37.117 172.778 36.9045C173.204 36.9544 173.559 37.1383 173.841 37.4571C174.124 37.7755 174.34 38.1532 174.491 38.5905C174.641 39.0276 174.729 39.4993 174.755 40.0047C174.779 40.5106 174.738 40.9757 174.632 41.4004ZM167.817 41.4004C167.711 41.8247 167.544 42.1843 167.318 42.4777C167.093 42.771 166.81 42.924 166.471 42.9369C166.258 42.9491 166.095 42.8365 165.982 42.5996C165.869 42.362 165.79 42.0561 165.747 41.6816C165.702 41.3067 165.683 40.8883 165.69 40.4263C165.696 39.9643 165.715 39.5083 165.747 39.0587C165.778 38.6093 165.815 38.1905 165.859 37.8036C165.903 37.4162 165.937 37.117 165.963 36.9045C166.389 36.9544 166.744 37.1383 167.026 37.4571C167.309 37.7755 167.525 38.1532 167.676 38.5905C167.827 39.0276 167.914 39.4993 167.94 40.0047C167.964 40.5106 167.923 40.9757 167.817 41.4004ZM160.824 30.7598C160.811 31.0593 160.783 31.3248 160.739 31.5558C160.695 31.7873 160.635 31.9337 160.56 31.9962C160.422 31.9211 160.252 31.7279 160.051 31.4153C159.851 31.1033 159.694 30.7501 159.581 30.3567C159.468 29.9634 159.433 29.5765 159.477 29.1953C159.521 28.8145 159.719 28.5182 160.07 28.3054C160.208 28.2306 160.327 28.2586 160.428 28.3898C160.528 28.521 160.61 28.7114 160.673 28.9612C160.735 29.2112 160.779 29.4983 160.805 29.823C160.83 30.1478 160.836 30.4599 160.824 30.7598ZM159.157 34.4972C158.963 34.703 158.746 34.881 158.508 35.031C158.269 35.1809 158.024 35.2933 157.774 35.3682C157.522 35.4433 157.297 35.4618 157.096 35.4243C156.531 35.3121 156.098 35.0683 155.797 34.6937C155.496 34.3191 155.304 33.879 155.223 33.3733C155.141 32.8673 155.15 32.327 155.251 31.7526C155.351 31.1782 155.521 30.6444 155.759 30.1509C155.998 29.6575 156.287 29.2328 156.625 28.8771C156.964 28.521 157.334 28.2995 157.736 28.2118C157.585 28.8487 157.535 29.5078 157.585 30.1883C157.635 30.8689 157.799 31.509 158.075 32.1083C158.25 32.4711 158.461 32.8016 158.705 33.1013C158.95 33.4013 159.248 33.6573 159.6 33.8695C159.499 34.082 159.352 34.2911 159.157 34.4972ZM179.988 30.9471C180.026 30.66 180.082 30.3567 180.158 30.0383C180.233 29.72 180.327 29.4109 180.44 29.1111C180.553 28.8112 180.685 28.5522 180.835 28.3337C180.986 28.1153 181.146 27.9589 181.315 27.8653C181.485 27.7716 181.657 27.7809 181.833 27.8933C182.021 28.006 182.137 28.2432 182.181 28.6051C182.225 28.9676 182.181 29.3545 182.049 29.7669C181.917 30.179 181.682 30.5662 181.343 30.9281C181.005 31.2908 180.546 31.5278 179.969 31.6402C179.944 31.4655 179.95 31.2345 179.988 30.9471ZM187.575 30.9471C187.613 30.66 187.669 30.3567 187.744 30.0383C187.82 29.72 187.914 29.4109 188.027 29.1111C188.14 28.8112 188.271 28.5522 188.422 28.3337C188.573 28.1153 188.733 27.9589 188.902 27.8653C189.072 27.7716 189.244 27.7809 189.42 27.8933C189.608 28.006 189.724 28.2432 189.768 28.6051C189.812 28.9676 189.768 29.3545 189.636 29.7669C189.504 30.179 189.269 30.5662 188.93 30.9281C188.592 31.2908 188.133 31.5278 187.556 31.6402C187.531 31.4655 187.537 31.2345 187.575 30.9471ZM194.625 32.043C194.481 31.8871 194.305 31.7778 194.098 31.715C193.891 31.6527 193.693 31.6466 193.505 31.6965C193.317 31.7464 193.197 31.8776 193.147 32.0898C193.047 32.4896 192.887 32.8986 192.667 33.3167C192.447 33.7354 192.178 34.1319 191.858 34.5064C191.538 34.881 191.177 35.2123 190.776 35.4994C190.373 35.7867 189.953 35.9928 189.514 36.1173C189.075 36.2552 188.711 36.2706 188.422 36.1644C188.133 36.0584 187.904 35.8773 187.735 35.6213C187.566 35.3651 187.443 35.0562 187.368 34.6937C187.293 34.3318 187.248 33.9572 187.236 33.5698C187.952 33.6199 188.588 33.4921 189.147 33.1857C189.705 32.8798 190.179 32.4736 190.569 31.9679C190.957 31.4624 191.252 30.8941 191.453 30.2634C191.654 29.6326 191.767 29.0051 191.792 28.3805C191.804 27.7935 191.716 27.297 191.528 26.8911C191.34 26.4854 191.086 26.1698 190.766 25.9452C190.446 25.7201 190.079 25.5891 189.664 25.5516C189.25 25.514 188.83 25.5706 188.403 25.7201C187.888 25.8953 187.452 26.1793 187.095 26.5726C186.737 26.9662 186.439 27.4223 186.201 27.9402C185.962 28.4587 185.774 29.0173 185.636 29.6169C185.497 30.2163 185.397 30.8067 185.335 31.3873C185.274 31.9508 185.241 32.4901 185.233 33.0063C185.186 33.1092 185.135 33.2126 185.08 33.3167C184.86 33.7354 184.591 34.1319 184.271 34.5064C183.951 34.881 183.59 35.2123 183.189 35.4994C182.787 35.7867 182.366 35.9928 181.927 36.1173C181.488 36.2552 181.124 36.2706 180.835 36.1644C180.546 36.0584 180.317 35.8773 180.148 35.6213C179.979 35.3651 179.856 35.0562 179.781 34.6937C179.706 34.3318 179.662 33.9572 179.649 33.5698C180.365 33.6199 181.001 33.4921 181.56 33.1857C182.118 32.8798 182.592 32.4736 182.981 31.9679C183.37 31.4624 183.665 30.8941 183.866 30.2634C184.067 29.6326 184.18 29.0051 184.205 28.3805C184.217 27.7935 184.13 27.297 183.942 26.8911C183.753 26.4854 183.499 26.1698 183.179 25.9452C182.859 25.7201 182.492 25.5891 182.078 25.5516C181.663 25.514 181.243 25.5706 180.816 25.7201C180.301 25.8953 179.865 26.1793 179.508 26.5726C179.15 26.9662 178.852 27.4223 178.614 27.9402C178.375 28.4587 178.187 29.0173 178.049 29.6169C177.911 30.2163 177.81 30.8067 177.748 31.3873C177.712 31.7148 177.689 32.0323 177.671 32.3441C177.55 32.4468 177.431 32.5502 177.305 32.6517C176.873 33.0015 176.417 33.3167 175.94 33.5978C175.463 33.879 174.967 34.11 174.453 34.2911C173.938 34.4722 173.411 34.5815 172.872 34.6189L174.039 22.1796C174.115 21.9172 174.077 21.6864 173.926 21.4865C173.776 21.2867 173.581 21.1493 173.343 21.0744C173.104 20.9993 172.85 21.0057 172.58 21.093C172.31 21.1807 172.088 21.3805 171.912 21.6923C171.824 22.1672 171.733 22.8165 171.639 23.6407C171.545 24.465 171.45 25.3643 171.357 26.3385C171.262 27.3127 171.168 28.318 171.074 29.3545C170.98 30.3914 170.898 31.3593 170.829 32.2583C170.826 32.2983 170.824 32.3344 170.821 32.3738C170.711 32.4665 170.604 32.5599 170.49 32.6517C170.058 33.0015 169.602 33.3167 169.125 33.5978C168.648 33.879 168.153 34.11 167.638 34.2911C167.124 34.4722 166.596 34.5815 166.057 34.6189L167.224 22.1796C167.3 21.9172 167.262 21.6864 167.111 21.4865C166.961 21.2867 166.766 21.1493 166.528 21.0744C166.289 20.9993 166.035 21.0057 165.765 21.093C165.495 21.1807 165.273 21.3805 165.097 21.6923C165.009 22.1672 164.918 22.8165 164.824 23.6407C164.73 24.465 164.636 25.3643 164.541 26.3385C164.447 27.3127 164.353 28.318 164.259 29.3545C164.165 30.3914 164.083 31.3593 164.015 32.2583C164.013 32.2764 164.012 32.2928 164.01 32.3109C163.813 32.4019 163.598 32.4818 163.365 32.5488C163.126 32.6177 162.857 32.6583 162.555 32.6707C162.606 32.4456 162.646 32.1958 162.678 31.9211C162.709 31.6466 162.734 31.3593 162.753 31.0593C162.772 30.7598 162.778 30.4599 162.772 30.1602C162.765 29.8603 162.75 29.5858 162.725 29.3357C162.662 28.7991 162.546 28.29 162.377 27.809C162.207 27.3284 161.978 26.9258 161.69 26.6007C161.401 26.276 161.04 26.0574 160.607 25.9452C160.174 25.8327 159.669 25.8701 159.092 26.0574C158.238 25.9452 157.469 26.0234 156.785 26.2917C156.101 26.5605 155.508 26.9505 155.006 27.4624C154.504 27.9749 154.093 28.5771 153.773 29.2704C153.453 29.9634 153.24 30.6755 153.133 31.4058C153.088 31.7155 153.066 32.0238 153.059 32.3313C152.865 32.7273 152.652 33.0733 152.418 33.3637C152.085 33.7758 151.74 34.1131 151.382 34.3752C151.025 34.6376 150.67 34.8375 150.319 34.9749C149.967 35.1125 149.653 35.2061 149.377 35.2558C149.051 35.3183 148.737 35.3247 148.436 35.2746C148.135 35.2249 147.859 35.0811 147.608 34.8437C147.407 34.669 147.253 34.3878 147.147 34.0007C147.04 33.6135 146.977 33.1736 146.959 32.68C146.94 32.1865 146.959 31.6713 147.015 31.1344C147.071 30.5975 147.168 30.0884 147.306 29.6076C147.445 29.1268 147.62 28.696 147.834 28.3147C148.047 27.9342 148.298 27.6623 148.587 27.5C148.749 27.5252 148.85 27.6217 148.888 27.7902C148.926 27.9589 148.935 28.1588 148.916 28.3898C148.897 28.6211 148.869 28.8583 148.832 29.1016C148.794 29.3453 148.775 29.5485 148.775 29.7105C148.838 30.0478 148.96 30.3102 149.142 30.4974C149.324 30.6847 149.528 30.7943 149.754 30.8252C149.98 30.8566 150.202 30.8036 150.423 30.666C150.642 30.5288 150.82 30.3102 150.959 30.0102C150.971 30.0228 150.99 30.029 151.015 30.029L151.279 27.65C151.354 27.3251 151.304 27.038 151.128 26.7882C150.952 26.5384 150.72 26.3946 150.432 26.3573C150.068 25.8327 149.575 25.5549 148.954 25.5236C148.332 25.4924 147.696 25.6954 147.043 26.1325C146.641 26.42 146.287 26.8162 145.979 27.322C145.671 27.828 145.421 28.3898 145.227 29.008C145.031 29.6262 144.894 30.2791 144.812 30.9659C144.731 31.6527 144.715 32.3211 144.765 32.9702C144.815 33.6199 144.931 34.2319 145.113 34.8061C145.295 35.3808 145.549 35.8616 145.876 36.2485C146.152 36.5858 146.465 36.8327 146.817 36.9889C147.168 37.145 147.535 37.2415 147.918 37.2791C148.301 37.3164 148.681 37.3007 149.057 37.2322C149.434 37.1638 149.792 37.0671 150.13 36.9418C150.569 36.7797 151.022 36.5734 151.486 36.3236C151.95 36.0741 152.396 35.7742 152.823 35.4243C153.047 35.2403 153.263 35.0398 153.472 34.8247C153.567 35.0595 153.673 35.2867 153.801 35.4994C154.14 36.0612 154.598 36.5173 155.176 36.8669C155.753 37.2165 156.462 37.3848 157.303 37.3727C158.207 37.3601 159.041 37.1324 159.807 36.6889C160.572 36.2459 161.2 35.5928 161.69 34.7312C162.423 34.7312 163.144 34.611 163.853 34.3722C163.847 34.4477 163.841 34.5273 163.835 34.6003C163.786 35.2622 163.76 35.7116 163.76 35.9491C163.748 36.3612 163.72 36.87 163.676 37.4756C163.632 38.0814 163.603 38.7184 163.591 39.3863C163.579 40.0545 163.603 40.7291 163.666 41.4098C163.729 42.0902 163.861 42.7087 164.062 43.2647C164.262 43.82 164.547 44.2918 164.918 44.6792C165.288 45.0659 165.774 45.2973 166.377 45.3722C167.017 45.4592 167.569 45.3471 168.034 45.0349C168.498 44.7224 168.874 44.2949 169.163 43.7518C169.452 43.2083 169.655 42.5808 169.775 41.8691C169.894 41.1569 169.929 40.442 169.879 39.7236C169.828 39.0055 169.696 38.3281 169.483 37.6914C169.27 37.0542 168.975 36.5297 168.598 36.1173C168.825 36.0553 169.094 35.9367 169.408 35.7616C169.721 35.5869 170.045 35.3901 170.378 35.1714C170.459 35.1177 170.54 35.0611 170.621 35.006C170.591 35.4485 170.575 35.7642 170.575 35.9491C170.563 36.3612 170.535 36.87 170.49 37.4756C170.447 38.0814 170.418 38.7184 170.406 39.3863C170.393 40.0545 170.418 40.7291 170.481 41.4098C170.544 42.0902 170.676 42.7087 170.876 43.2647C171.077 43.82 171.363 44.2918 171.733 44.6792C172.103 45.0659 172.589 45.2973 173.192 45.3722C173.832 45.4592 174.384 45.3471 174.848 45.0349C175.313 44.7224 175.69 44.2949 175.978 43.7518C176.267 43.2083 176.471 42.5808 176.59 41.8691C176.709 41.1569 176.743 40.442 176.694 39.7236C176.643 39.0055 176.511 38.3281 176.299 37.6914C176.085 37.0542 175.79 36.5297 175.413 36.1173C175.639 36.0553 175.909 35.9367 176.223 35.7616C176.536 35.5869 176.86 35.3901 177.193 35.1714C177.365 35.0578 177.537 34.9407 177.709 34.8202C177.773 35.4309 177.912 35.9667 178.133 36.4173C178.404 36.967 178.77 37.3915 179.235 37.6914C179.699 37.9909 180.245 38.1565 180.873 38.1876C181.5 38.2185 182.184 38.1033 182.925 37.8409C183.477 37.6413 183.957 37.3915 184.365 37.0918C184.773 36.7918 185.14 36.4265 185.466 35.9959C185.485 35.9709 185.503 35.9438 185.521 35.9187C185.579 36.0936 185.644 36.2616 185.72 36.4173C185.991 36.967 186.358 37.3915 186.822 37.6914C187.286 37.9909 187.832 38.1565 188.46 38.1876C189.087 38.2185 189.771 38.1033 190.512 37.8409C191.064 37.6413 191.544 37.3915 191.952 37.0918C192.36 36.7918 192.727 36.4265 193.053 35.9959C193.38 35.5648 193.677 35.0683 193.947 34.5064C194.217 33.9443 194.49 33.3014 194.767 32.5768C194.816 32.3772 194.769 32.1992 194.625 32.043Z" fill="white"/>
</g>
<defs>
<clipPath id="clip0_1111_2276">
<rect width="214" height="60" fill="white"/>
</clipPath>
</defs>
</svg>
