<svg width="214" height="60" viewBox="0 0 214 60" fill="none" xmlns="http://www.w3.org/2000/svg">
<g clip-path="url(#clip0_724_162)">
<path d="M0 9.6C0 4.29808 4.30613 0 9.61798 0H204.382C209.694 0 214 4.29808 214 9.6V50.4C214 55.702 209.694 60 204.382 60H9.61798C4.30613 60 0 55.702 0 50.4V9.6Z" fill="#45A147"/>
<path d="M43.0054 19.7325L42.9791 19.717L42.918 19.6984C42.9427 19.7191 42.9733 19.7311 43.0054 19.7325Z" fill="#0D0C22"/>
<path d="M43.0162 19.7279C43.0127 19.7275 43.0095 19.7267 43.0064 19.7256C43.006 19.7277 43.006 19.7299 43.0064 19.7321C43.0099 19.7316 43.0131 19.7301 43.0162 19.7279Z" fill="#0D0C22"/>
<path d="M43.0061 19.7334H43.0112V19.7303L43.0061 19.7334Z" fill="#0D0C22"/>
<path d="M43.3689 22.4708L43.4132 22.4455L43.4297 22.4362L43.4446 22.4202C43.4167 22.4323 43.3909 22.4495 43.3689 22.4708Z" fill="#0D0C22"/>
<path d="M43.0812 19.7927L43.0377 19.7514L43.0083 19.7354C43.0244 19.7633 43.0503 19.7839 43.0812 19.7927Z" fill="#0D0C22"/>
<path d="M32.1513 46.413C32.1166 46.4279 32.0863 46.4514 32.063 46.4812L32.0904 46.4636C32.1089 46.4467 32.1353 46.4263 32.1513 46.413Z" fill="#0D0C22"/>
<path d="M38.4988 45.166C38.4988 45.1268 38.4797 45.1338 38.4844 45.2734C38.4844 45.2621 38.489 45.2507 38.4911 45.2397C38.4937 45.215 38.4957 45.1907 38.4988 45.166Z" fill="#0D0C22"/>
<path d="M37.8432 46.413C37.8085 46.4279 37.7782 46.4514 37.7549 46.4812L37.7823 46.4636C37.8008 46.4467 37.8272 46.4263 37.8432 46.413Z" fill="#0D0C22"/>
<path d="M27.6787 46.7098C27.6524 46.687 27.6201 46.6717 27.5857 46.6663C27.6136 46.68 27.6415 46.6933 27.6601 46.7035L27.6787 46.7098Z" fill="#0D0C22"/>
<path d="M26.6736 45.7478C26.6696 45.707 26.657 45.6678 26.637 45.6321C26.6512 45.6689 26.6631 45.707 26.6726 45.7458L26.6736 45.7478Z" fill="#0D0C22"/>
<path d="M33.4303 28.5388C32.0492 29.1292 30.4819 29.7987 28.4507 29.7987C27.6009 29.797 26.7553 29.6806 25.9368 29.4526L27.3417 43.8581C27.3914 44.4601 27.666 45.0216 28.111 45.4306C28.556 45.8401 29.1389 46.0671 29.7438 46.0667C29.7438 46.0667 31.7358 46.1702 32.4005 46.1702C33.1158 46.1702 35.2609 46.0667 35.2609 46.0667C35.8657 46.0667 36.4484 45.8397 36.8934 45.4306C37.3383 45.0212 37.6128 44.4601 37.6626 43.8581L39.1673 27.9395C38.4948 27.7101 37.8162 27.5577 37.0511 27.5577C35.728 27.5572 34.6619 28.0123 33.4303 28.5388Z" fill="white"/>
<path d="M21.5908 22.3929L21.6146 22.4151L21.6301 22.4244C21.6182 22.4126 21.605 22.402 21.5908 22.3929Z" fill="#0D0C22"/>
<path d="M45.667 21.0635L45.4557 19.9978C45.2657 19.0416 44.8349 18.138 43.8521 17.7924C43.5372 17.6819 43.1795 17.6343 42.938 17.4055C42.6965 17.1767 42.625 16.8212 42.5693 16.4916C42.466 15.8867 42.3686 15.2812 42.2626 14.6774C42.1711 14.1582 42.0985 13.5749 41.8601 13.0987C41.5499 12.4591 40.9059 12.0851 40.2655 11.8376C39.9373 11.7153 39.6023 11.6118 39.2624 11.5277C37.6625 11.1061 35.9804 10.9511 34.3345 10.8628C32.3589 10.7539 30.3781 10.7867 28.4072 10.961C26.9402 11.0942 25.3952 11.2554 24.0012 11.7622C23.4916 11.9477 22.9667 12.1703 22.5792 12.5634C22.1039 13.0465 21.9487 13.7935 22.2958 14.3958C22.5425 14.8236 22.9605 15.1258 23.4037 15.3257C23.9811 15.5833 24.5841 15.7793 25.2027 15.9105C26.9252 16.2907 28.7093 16.44 30.469 16.5035C32.4194 16.5821 34.3729 16.5184 36.314 16.3129C36.794 16.2602 37.2732 16.197 37.7515 16.1233C38.3148 16.037 38.6763 15.3014 38.5103 14.7889C38.3117 14.1763 37.7779 13.9386 37.1742 14.0311C37.0853 14.045 36.9968 14.0579 36.9078 14.0709L36.8437 14.0802C36.6392 14.106 36.4347 14.1301 36.2302 14.1525C35.8078 14.1979 35.3844 14.2352 34.9599 14.2641C34.0091 14.3302 33.0558 14.3607 32.103 14.3622C31.1668 14.3622 30.23 14.3359 29.2958 14.2744C28.8696 14.2465 28.4444 14.211 28.0203 14.168C27.8273 14.1478 27.6349 14.1267 27.4425 14.1029L27.2594 14.0796L27.2196 14.074L27.0297 14.0466C26.6418 13.9882 26.2538 13.921 25.87 13.8399C25.8313 13.8314 25.7966 13.8099 25.7718 13.779C25.747 13.7481 25.7335 13.7096 25.7335 13.67C25.7335 13.6304 25.747 13.5919 25.7718 13.561C25.7966 13.5301 25.8313 13.5086 25.87 13.5H25.8773C26.2099 13.4292 26.5451 13.3688 26.8813 13.3161C26.9934 13.2986 27.1058 13.2813 27.2185 13.2645H27.2216C27.4322 13.2505 27.6437 13.2128 27.8532 13.188C29.6759 12.9987 31.5093 12.9341 33.3408 12.9948C34.23 13.0206 35.1186 13.0728 36.0037 13.1627C36.194 13.1823 36.3834 13.203 36.5727 13.2262C36.6451 13.235 36.718 13.2454 36.7909 13.2541L36.9378 13.2753C37.3662 13.339 37.7922 13.4163 38.216 13.5073C38.844 13.6436 39.6502 13.6881 39.9298 14.3752C40.0185 14.5932 40.059 14.8354 40.1081 15.0643L40.1709 15.3561C40.1725 15.3614 40.1736 15.3668 40.1744 15.3722C40.3225 16.061 40.4705 16.7498 40.6185 17.4386C40.6295 17.4894 40.6299 17.542 40.6193 17.593C40.6091 17.644 40.5883 17.6923 40.5584 17.7349C40.5286 17.7775 40.4901 17.8135 40.4458 17.8407C40.4014 17.8678 40.3515 17.8855 40.3001 17.8927H40.2958L40.2054 17.905L40.1159 17.9169C39.8324 17.9538 39.5485 17.9882 39.2645 18.0203C38.7048 18.0839 38.1443 18.1391 37.5829 18.1856C36.4673 18.2782 35.3495 18.339 34.2295 18.3679C33.6588 18.3831 33.0882 18.3901 32.5179 18.3891C30.2476 18.3873 27.9793 18.2556 25.7242 17.9944C25.48 17.9655 25.2359 17.9345 24.9917 17.903C25.181 17.9273 24.8541 17.8844 24.7879 17.8751C24.6328 17.8534 24.4776 17.8308 24.3224 17.8074C23.8015 17.7294 23.2837 17.6333 22.7639 17.5491C22.1354 17.4458 21.5344 17.4975 20.9659 17.8074C20.4993 18.0624 20.1216 18.4535 19.8833 18.9284C19.6381 19.4347 19.5652 19.9859 19.4555 20.5299C19.3458 21.0739 19.1751 21.6592 19.2398 22.2176C19.3789 23.4228 20.2226 24.4023 21.4361 24.6213C22.5777 24.8279 23.7255 24.9954 24.8764 25.1379C29.3974 25.6909 33.9648 25.7571 38.5 25.3353C38.8693 25.3008 39.2381 25.2633 39.6062 25.2227C39.7213 25.21 39.8379 25.2232 39.9471 25.2614C40.0562 25.2995 40.1556 25.3616 40.2376 25.443C40.3197 25.5244 40.3829 25.6232 40.4218 25.732C40.4607 25.8408 40.4748 25.957 40.463 26.0719L40.348 27.1867C40.1167 29.4394 39.8854 31.692 39.6541 33.9443C39.4127 36.3097 39.1696 38.6748 38.9252 41.0396C38.8562 41.7059 38.7872 42.3718 38.7182 43.0377C38.652 43.693 38.6427 44.3694 38.5181 45.0173C38.3215 46.0357 37.631 46.6616 36.6234 46.8902C35.7002 47.1 34.7572 47.2102 33.8105 47.2188C32.761 47.2243 31.712 47.1781 30.6625 47.1836C29.5421 47.1898 28.1698 47.0867 27.3049 46.2538C26.5451 45.5224 26.4401 44.3769 26.3366 43.3867C26.1987 42.0757 26.0619 40.7647 25.9264 39.4538L25.166 32.1652L24.6741 27.4492C24.6659 27.3712 24.6576 27.2942 24.6498 27.2157C24.5909 26.6531 24.192 26.1024 23.5636 26.1308C23.0256 26.1546 22.4142 26.6112 22.4773 27.2157L22.842 30.712L23.5961 37.9444C23.811 39.9988 24.0253 42.0534 24.2391 44.1083C24.2805 44.502 24.3193 44.8969 24.3627 45.2902C24.5991 47.4416 26.244 48.6008 28.281 48.9271C29.4707 49.1185 30.6894 49.1577 31.8966 49.1773C33.4443 49.202 35.0074 49.2616 36.5297 48.9816C38.7855 48.5683 40.4779 47.0639 40.7194 44.7302C40.7885 44.0569 40.8577 43.3828 40.9264 42.709C41.1557 40.48 41.3846 38.2509 41.6135 36.0216L42.3611 28.7376L42.7043 25.3993C42.7212 25.2338 42.7915 25.0781 42.9038 24.9554C43.0165 24.8327 43.1657 24.7494 43.3291 24.7179C43.9742 24.5924 44.5907 24.378 45.0497 23.8878C45.78 23.1072 45.9253 22.0895 45.667 21.0635ZM21.403 21.7837C21.4128 21.779 21.3947 21.8632 21.387 21.9025C21.3854 21.8431 21.3885 21.7904 21.403 21.7837ZM21.4656 22.2672C21.4707 22.2636 21.4863 22.2843 21.5023 22.309C21.478 22.2863 21.4625 22.2693 21.465 22.2672H21.4656ZM21.5271 22.3483C21.5613 22.4098 21.5494 22.386 21.5271 22.3483ZM21.6507 22.4485H21.6538C21.6538 22.4521 21.6595 22.4558 21.6616 22.4594C21.6582 22.4554 21.6544 22.4518 21.6502 22.4485H21.6507ZM43.2992 22.2987C43.0675 22.5188 42.7181 22.6211 42.3733 22.6722C38.5041 23.2456 34.5786 23.5359 30.6671 23.4078C27.8677 23.3123 25.0977 23.0018 22.3263 22.6107C22.0547 22.5725 21.7604 22.5229 21.5737 22.323C21.2219 21.9459 21.3947 21.1865 21.4863 20.7308C21.57 20.3134 21.7304 19.757 22.2275 19.6976C23.0034 19.6067 23.9045 19.9337 24.6721 20.0499C25.5962 20.1908 26.5239 20.3036 27.4549 20.3883C31.4285 20.7499 35.4688 20.6936 39.4248 20.1647C40.1458 20.0679 40.8643 19.9554 41.5801 19.8273C42.2182 19.7131 42.925 19.4988 43.3106 20.1585C43.5749 20.6079 43.6098 21.2092 43.569 21.717C43.5564 21.9383 43.4598 22.1464 43.2984 22.2987H43.2992Z" fill="#0D0C22"/>
<path fill-rule="evenodd" clip-rule="evenodd" d="M66.7667 33.0352C66.5409 33.4658 66.2303 33.8409 65.8349 34.1591C65.4395 34.4776 64.9785 34.7369 64.4512 34.9365C63.9242 35.1367 63.3938 35.2709 62.8605 35.3394C62.3269 35.4081 61.809 35.4021 61.3076 35.3206C60.8053 35.2396 60.3781 35.0742 60.0271 34.8241L60.4229 30.7215C60.7865 30.5967 61.2443 30.4686 61.7968 30.3374C62.3489 30.2065 62.9167 30.1126 63.5006 30.0565C64.0845 30.0002 64.6361 30.0068 65.1572 30.0753C65.6779 30.144 66.089 30.3094 66.3902 30.5718C66.5535 30.7215 66.6917 30.8838 66.8044 31.0587C66.9175 31.2337 66.9862 31.4148 67.0117 31.6021C67.0742 32.1266 66.9929 32.6043 66.7667 33.0352ZM61.0248 24.2959C61.2883 24.1336 61.6056 23.9898 61.9755 23.8648C62.3457 23.7403 62.7255 23.6525 63.1146 23.6027C63.5033 23.553 63.883 23.5463 64.2537 23.5839C64.6236 23.6214 64.9503 23.7244 65.2326 23.8929C65.5149 24.0616 65.725 24.3052 65.8632 24.6234C66.001 24.9422 66.0387 25.345 65.9759 25.832C65.926 26.2191 65.7717 26.5471 65.5149 26.8155C65.2577 27.0842 64.9436 27.3088 64.5737 27.49C64.2034 27.6713 63.8112 27.8148 63.3973 27.9206C62.9826 28.0271 62.5841 28.1053 62.2016 28.1549C61.8188 28.2051 61.4862 28.2365 61.2039 28.2486C60.9216 28.2612 60.7362 28.2673 60.6483 28.2673L61.0248 24.2959ZM68.7999 30.3843C68.5993 29.9474 68.3295 29.5633 67.9906 29.232C67.6518 28.9012 67.2497 28.6609 66.7856 28.511C66.9862 28.3486 67.1841 28.0927 67.3789 27.7428C67.5732 27.3935 67.7393 27.0122 67.8776 26.6001C68.0154 26.1878 68.11 25.7728 68.1599 25.3543C68.2097 24.936 68.1909 24.5769 68.1037 24.2769C67.8897 23.5278 67.5544 22.9407 67.0962 22.516C66.6379 22.0916 66.1047 21.798 65.4961 21.6355C64.8871 21.4736 64.216 21.4389 63.4817 21.5326C62.7474 21.6262 61.9975 21.8104 61.2322 22.0851C61.2322 22.0229 61.2384 21.9573 61.251 21.8886C61.2632 21.8202 61.2695 21.7481 61.2695 21.673C61.2695 21.4858 61.1756 21.3236 60.9871 21.186C60.7991 21.0487 60.5827 20.9676 60.3381 20.9424C60.0931 20.9177 59.8547 20.9705 59.6223 21.1017C59.3902 21.2329 59.23 21.4736 59.1424 21.8227C59.0419 22.9469 58.9414 24.1148 58.8413 25.326C58.7407 26.5376 58.6339 27.7616 58.5212 28.9982C58.4082 30.2345 58.2951 31.4616 58.1824 32.6792C58.0693 33.897 57.9562 35.0677 57.8435 36.1916C57.8812 36.5289 57.975 36.7913 58.1258 36.9786C58.2762 37.1661 58.4521 37.2785 58.6528 37.3158C58.8534 37.3534 59.0639 37.3187 59.2834 37.2127C59.5029 37.1069 59.6945 36.9222 59.8579 36.6601C60.3597 36.9349 60.9247 37.1129 61.5522 37.1942C62.1797 37.2752 62.8162 37.2752 63.4633 37.1942C64.1092 37.1129 64.7461 36.96 65.3736 36.735C66.001 36.5104 66.5723 36.2292 67.0867 35.8922C67.6015 35.5549 68.0342 35.1706 68.386 34.74C68.7371 34.3089 68.9695 33.8437 69.0822 33.3444C69.1953 32.8322 69.2267 32.3203 69.1765 31.8081C69.1262 31.2962 69.0006 30.8218 68.7999 30.3843Z" fill="white"/>
<path fill-rule="evenodd" clip-rule="evenodd" d="M87.167 40.2753C87.0983 40.6874 87.0005 41.1215 86.8752 41.5776C86.7496 42.0329 86.6023 42.4486 86.4331 42.8235C86.2635 43.198 86.0754 43.5004 85.8685 43.7317C85.6611 43.9627 85.4381 44.0596 85.1998 44.0223C85.0117 43.9968 84.8923 43.8784 84.8424 43.6662C84.7918 43.4537 84.7918 43.1913 84.8424 42.8796C84.8923 42.567 84.9893 42.2141 85.1338 41.8208C85.2783 41.4274 85.4542 41.0368 85.6611 40.6502C85.8685 40.2627 86.1037 39.8913 86.3671 39.5353C86.6306 39.1797 86.9066 38.8828 87.1953 38.6456C87.2581 38.7205 87.2863 38.9078 87.2801 39.2077C87.2734 39.5074 87.2361 39.8635 87.167 40.2753ZM93.5493 32.145C93.3797 31.9577 93.1727 31.8517 92.9277 31.8265C92.6831 31.8015 92.4349 31.9389 92.1844 32.2386C92.021 32.5383 91.8137 32.8256 91.5628 33.1004C91.3119 33.3753 91.0516 33.6249 90.7818 33.8497C90.5117 34.0743 90.2545 34.2682 90.0098 34.4304C89.7652 34.5929 89.5736 34.7115 89.4358 34.7864C89.3855 34.3869 89.3568 33.956 89.351 33.4937C89.3443 33.0317 89.3541 32.5635 89.3792 32.0888C89.4165 31.4144 89.4951 30.7339 89.6144 30.0468C89.7338 29.36 89.9062 28.6855 90.1324 28.0233C90.1324 27.6739 90.0503 27.3897 89.8873 27.171C89.724 26.9526 89.5265 26.815 89.2944 26.7589C89.062 26.7028 88.824 26.734 88.579 26.8526C88.3344 26.9714 88.1243 27.1869 87.9484 27.4988C87.798 27.9111 87.6252 28.3731 87.4308 28.8851C87.2361 29.3973 87.0166 29.9187 86.772 30.4494C86.5269 30.9806 86.254 31.4956 85.9529 31.995C85.6517 32.4948 85.3223 32.9383 84.9645 33.3252C84.6068 33.7124 84.2177 34.0154 83.7976 34.2338C83.3766 34.4524 82.9223 34.5492 82.4327 34.5242C82.2065 34.4617 82.0432 34.2932 81.943 34.0182C81.8425 33.7437 81.7828 33.4 81.7644 32.9879C81.7455 32.5758 81.7644 32.1231 81.8205 31.6297C81.8771 31.1365 81.9524 30.6462 82.0467 30.1592C82.1405 29.672 82.2442 29.21 82.3569 28.7729C82.47 28.3359 82.5764 27.9672 82.6769 27.6675C82.8277 27.3055 82.8277 27.0023 82.6769 26.7589C82.5265 26.5153 82.3196 26.3532 82.0561 26.2717C81.7926 26.1907 81.5162 26.194 81.2276 26.2812C80.939 26.3687 80.7317 26.5621 80.6064 26.8618C80.3928 27.3742 80.198 27.9484 80.0225 28.5854C79.847 29.2224 79.7056 29.8814 79.5992 30.5619C79.4924 31.2428 79.4323 31.9173 79.4202 32.5853C79.4194 32.6288 79.4214 32.6702 79.4214 32.7134C79.1477 33.4395 78.8869 33.9883 78.6392 34.3555C78.3192 34.8303 77.9579 35.0364 77.5566 34.9737C77.3803 34.8988 77.2649 34.7241 77.2083 34.4491C77.1514 34.1746 77.1329 33.8374 77.1514 33.4374C77.1706 33.0381 77.2177 32.5853 77.2927 32.0793C77.3685 31.5736 77.462 31.0491 77.5751 30.5057C77.6882 29.9622 77.8075 29.4163 77.9328 28.8666C78.0584 28.3171 78.1711 27.7987 78.272 27.3115C78.2595 26.8744 78.1307 26.5405 77.8857 26.3093C77.6414 26.0785 77.299 25.9879 76.86 26.0376C76.5589 26.1626 76.3358 26.3252 76.1917 26.5248C76.0472 26.7244 75.931 26.9807 75.8434 27.2927C75.7928 27.4553 75.7178 27.7799 75.6173 28.2671C75.5167 28.7539 75.3883 29.3131 75.2313 29.9437C75.0746 30.5747 74.8893 31.2333 74.6761 31.9201C74.4628 32.6069 74.2241 33.2287 73.961 33.7841C73.6971 34.3398 73.4085 34.7864 73.0948 35.1236C72.7811 35.4606 72.4422 35.5982 72.0782 35.5357C71.8772 35.4982 71.7488 35.2921 71.6922 34.9176C71.6357 34.5428 71.6267 34.081 71.664 33.5313C71.7017 32.9818 71.777 32.379 71.8897 31.7235C72.0028 31.0678 72.1187 30.4466 72.238 29.8593C72.3574 29.2725 72.4673 28.7539 72.5679 28.3045C72.668 27.8548 72.7371 27.5551 72.7748 27.4054C72.7748 27.0432 72.6927 26.753 72.5302 26.5341C72.3668 26.3159 72.1693 26.1783 71.9369 26.122C71.7044 26.0659 71.4661 26.097 71.2218 26.2156C70.9768 26.3344 70.7667 26.55 70.5908 26.8618C70.528 27.1991 70.4463 27.5896 70.3462 28.0328C70.2457 28.476 70.1487 28.9319 70.0544 29.4004C69.9602 29.8688 69.8722 30.3277 69.791 30.7774C69.7093 31.2271 69.6496 31.6204 69.6119 31.9577C69.5868 32.2198 69.5585 32.5416 69.5275 32.9224C69.4957 33.3036 69.48 33.7062 69.48 34.1306C69.48 34.5556 69.5114 34.977 69.5746 35.3953C69.637 35.8138 69.7501 36.1979 69.9131 36.5473C70.076 36.8971 70.3053 37.1842 70.6006 37.409C70.8951 37.6339 71.2685 37.7586 71.7205 37.7839C72.1846 37.8086 72.5895 37.7746 72.935 37.6807C73.2798 37.587 73.5935 37.4402 73.8762 37.2403C74.1585 37.0409 74.4157 36.8035 74.6482 36.5285C74.8798 36.254 75.1092 35.9543 75.3349 35.6294C75.5485 36.1042 75.8246 36.4724 76.1635 36.7348C76.5023 36.9969 76.86 37.1533 77.2366 37.203C77.6128 37.2526 77.996 37.2001 78.3851 37.0437C78.7739 36.8878 79.1253 36.6224 79.439 36.2475C79.646 36.0177 79.8407 35.7565 80.0237 35.4678C80.1014 35.603 80.1839 35.7335 80.277 35.854C80.5844 36.254 81.0018 36.5285 81.5292 36.6784C82.0938 36.8284 82.6455 36.8536 83.1854 36.7535C83.7249 36.6537 84.2397 36.4724 84.7289 36.2102C85.2186 35.9479 85.6733 35.6327 86.0942 35.2641C86.5144 34.8957 86.8815 34.5119 87.1953 34.1119C87.1827 34.3992 87.1764 34.6711 87.1764 34.9268C87.1764 35.183 87.1701 35.4606 87.1579 35.7606C86.5301 36.1979 85.9372 36.7224 85.3788 37.3342C84.82 37.9459 84.3304 38.5986 83.9103 39.2917C83.4897 39.9847 83.1603 40.6874 82.9223 41.3992C82.6836 42.1113 82.5674 42.7764 82.5736 43.3949C82.5799 44.0129 82.7272 44.5529 83.0162 45.0149C83.3044 45.4772 83.7752 45.8078 84.4278 46.0078C85.1059 46.2204 85.7016 46.2262 86.2167 46.0266C86.7311 45.8266 87.1795 45.4957 87.5624 45.0337C87.9452 44.5717 88.259 44.0129 88.504 43.3572C88.7486 42.7015 88.943 42.0176 89.0875 41.3059C89.2316 40.5941 89.3227 39.8941 89.3604 39.2077C89.3981 38.5206 89.3981 37.9084 89.3604 37.3715C90.4398 36.922 91.3245 36.3538 92.0148 35.6667C92.7051 34.9803 93.276 34.2557 93.7279 33.4937C93.8658 33.3064 93.9129 33.0816 93.8693 32.8194C93.8249 32.5571 93.7185 32.3322 93.5493 32.145Z" fill="white"/>
<path fill-rule="evenodd" clip-rule="evenodd" d="M117.298 30.9464C117.335 30.6594 117.392 30.3563 117.467 30.0379C117.542 29.7194 117.637 29.4102 117.75 29.1105C117.862 28.8108 117.994 28.5517 118.145 28.3331C118.295 28.1146 118.456 27.9585 118.625 27.8646C118.795 27.7712 118.967 27.7805 119.143 27.8927C119.331 28.0054 119.447 28.2425 119.491 28.6045C119.535 28.9672 119.491 29.3541 119.359 29.7662C119.227 30.1786 118.992 30.5655 118.653 30.9277C118.314 31.2901 117.856 31.5271 117.279 31.6395C117.254 31.4651 117.26 31.2338 117.298 30.9464ZM123.821 31.7144C123.614 31.6523 123.416 31.6459 123.228 31.6958C123.04 31.7457 122.92 31.8769 122.87 32.0894C122.769 32.4889 122.609 32.8979 122.39 33.3163C122.17 33.7348 121.901 34.1312 121.581 34.506C121.261 34.8806 120.9 35.2117 120.498 35.4988C120.096 35.7861 119.676 35.9921 119.237 36.1169C118.797 36.2545 118.433 36.27 118.145 36.1637C117.856 36.058 117.627 35.8766 117.458 35.6207C117.288 35.3647 117.166 35.0555 117.091 34.6933C117.015 34.3311 116.971 33.9565 116.959 33.5691C117.674 33.6193 118.311 33.4914 118.87 33.1851C119.428 32.8794 119.902 32.4732 120.291 31.9675C120.68 31.4617 120.975 30.8935 121.176 30.2627C121.376 29.6322 121.489 29.0045 121.515 28.3799C121.527 27.7928 121.44 27.2966 121.251 26.8907C121.063 26.485 120.809 26.1691 120.489 25.9445C120.169 25.7197 119.801 25.5885 119.387 25.5512C118.974 25.5136 118.553 25.5699 118.126 25.7197C117.611 25.8946 117.175 26.1786 116.818 26.5722C116.46 26.9655 116.162 27.4216 115.923 27.9397C115.685 28.4581 115.497 29.0168 115.359 29.6163C115.221 30.2159 115.12 30.806 115.058 31.3869C115.001 31.9081 114.971 32.4064 114.96 32.8875C114.933 32.9486 114.907 33.0073 114.879 33.0726C114.684 33.5164 114.458 33.9503 114.201 34.3748C113.944 34.7995 113.658 35.1555 113.344 35.4426C113.031 35.73 112.704 35.8298 112.366 35.7424C112.164 35.6927 112.055 35.4612 112.036 35.0493C112.017 34.637 112.039 34.125 112.102 33.513C112.164 32.9013 112.237 32.2389 112.318 31.5271C112.4 30.8153 112.441 30.1348 112.441 29.4853C112.441 28.9232 112.334 28.3832 112.121 27.8646C111.907 27.3468 111.615 26.9156 111.245 26.5722C110.875 26.2285 110.445 26.0006 109.956 25.8885C109.466 25.7758 108.939 25.8509 108.375 26.113C107.809 26.3754 107.361 26.7438 107.029 27.2184C106.696 27.6933 106.391 28.1926 106.115 28.7172C106.015 28.3174 105.867 27.9462 105.673 27.6025C105.478 27.2591 105.24 26.9594 104.958 26.7032C104.675 26.4474 104.358 26.2475 104.007 26.1037C103.656 25.9604 103.285 25.8885 102.896 25.8885C102.52 25.8885 102.171 25.9604 101.851 26.1037C101.531 26.2475 101.24 26.4315 100.976 26.6563C100.712 26.8814 100.474 27.1341 100.26 27.4152C100.047 27.6961 99.8585 27.9742 99.6956 28.2487C99.67 27.9241 99.6422 27.6401 99.6111 27.3962C99.5793 27.1528 99.5228 26.9468 99.4415 26.7783C99.3598 26.6095 99.244 26.4817 99.0932 26.3942C98.9424 26.307 98.7292 26.263 98.4532 26.263C98.315 26.263 98.1767 26.291 98.0389 26.3471C97.9007 26.4035 97.7782 26.4817 97.6718 26.5815C97.565 26.6818 97.4837 26.8032 97.4272 26.9468C97.3706 27.0903 97.3553 27.256 97.38 27.4432C97.3926 27.5808 97.4272 27.7461 97.4837 27.9397C97.5399 28.1334 97.5933 28.3866 97.6435 28.6984C97.6938 29.0107 97.7346 29.3886 97.766 29.8318C97.7974 30.2753 97.8065 30.8186 97.7943 31.4617C97.7813 32.1051 97.7346 32.8573 97.6529 33.7191C97.5713 34.5809 97.4425 35.58 97.267 36.7163C97.2418 36.9787 97.3423 37.1912 97.5685 37.3535C97.7943 37.5156 98.0515 37.6092 98.3401 37.6344C98.6287 37.6594 98.902 37.6092 99.1592 37.4847C99.4164 37.3594 99.564 37.141 99.6013 36.829C99.639 36.2419 99.7113 35.6176 99.8181 34.9554C99.9245 34.2938 100.056 33.6381 100.213 32.9885C100.37 32.3392 100.549 31.721 100.75 31.1337C100.95 30.5467 101.174 30.0286 101.418 29.5789C101.663 29.1293 101.917 28.7704 102.181 28.5018C102.444 28.2333 102.72 28.099 103.009 28.099C103.36 28.099 103.633 28.258 103.828 28.5765C104.022 28.8952 104.16 29.3044 104.242 29.8035C104.323 30.3034 104.361 30.85 104.355 31.443C104.349 32.0362 104.323 32.6075 104.28 33.157C104.236 33.7067 104.186 34.1968 104.129 34.6277C104.073 35.0586 104.032 35.3554 104.007 35.5175C104.007 35.8049 104.117 36.0326 104.336 36.2013C104.556 36.3698 104.8 36.4699 105.07 36.501C105.34 36.5324 105.594 36.4822 105.833 36.351C106.071 36.2198 106.209 35.9986 106.247 35.686C106.372 34.7869 106.545 33.8848 106.765 32.9792C106.984 32.0737 107.235 31.2621 107.518 30.5439C107.8 29.8256 108.114 29.2386 108.459 28.7828C108.804 28.3272 109.171 28.099 109.56 28.099C109.761 28.099 109.915 28.2366 110.021 28.5111C110.128 28.7858 110.182 29.1604 110.182 29.635C110.182 29.9849 110.153 30.344 110.097 30.7124C110.04 31.0808 109.975 31.4617 109.899 31.8551C109.824 32.2486 109.758 32.6513 109.701 33.0634C109.645 33.4757 109.617 33.9064 109.617 34.3561C109.617 34.6683 109.648 35.0305 109.711 35.4426C109.774 35.8545 109.893 36.2453 110.068 36.6134C110.244 36.982 110.486 37.2941 110.794 37.5501C111.101 37.806 111.493 37.9341 111.97 37.9341C112.686 37.9341 113.319 37.7811 113.871 37.4752C114.423 37.1693 114.897 36.7698 115.293 36.2764C115.313 36.2505 115.332 36.2229 115.352 36.1973C115.382 36.2702 115.409 36.3475 115.443 36.4168C115.713 36.9663 116.08 37.3908 116.545 37.6908C117.009 37.9905 117.555 38.1559 118.183 38.1872C118.81 38.2181 119.494 38.1026 120.235 37.8405C120.787 37.6406 121.267 37.3908 121.675 37.0911C122.082 36.7914 122.449 36.4261 122.776 35.9952C123.102 35.5643 123.4 35.0679 123.67 34.506C123.94 33.9437 124.213 33.3008 124.489 32.5761C124.539 32.3768 124.492 32.1987 124.348 32.0424C124.203 31.8864 124.028 31.7771 123.821 31.7144Z" fill="white"/>
<path fill-rule="evenodd" clip-rule="evenodd" d="M134.052 29.6247C133.99 29.9934 133.905 30.3995 133.798 30.8425C133.692 31.286 133.557 31.745 133.393 32.2196C133.231 32.6942 133.029 33.122 132.791 33.5027C132.553 33.884 132.28 34.1865 131.972 34.4114C131.665 34.6362 131.31 34.7298 130.909 34.6923C130.708 34.6676 130.554 34.5302 130.447 34.2802C130.341 34.0306 130.284 33.7119 130.278 33.3247C130.271 32.9378 130.306 32.5131 130.381 32.0509C130.457 31.5891 130.573 31.1361 130.73 30.6926C130.887 30.2496 131.078 29.8403 131.304 29.4655C131.53 29.0909 131.79 28.8005 132.085 28.5945C132.38 28.3884 132.704 28.2919 133.055 28.304C133.406 28.3166 133.783 28.4913 134.184 28.8285C134.159 28.9911 134.115 29.2566 134.052 29.6247ZM140.745 31.0579C140.55 30.958 140.349 30.9364 140.143 30.9925C139.936 31.0486 139.788 31.2392 139.7 31.5639C139.65 31.9137 139.537 32.3256 139.362 32.8002C139.186 33.2748 138.969 33.7247 138.712 34.149C138.454 34.5737 138.16 34.9266 137.827 35.2075C137.494 35.4887 137.14 35.6168 136.764 35.5914C136.45 35.5667 136.23 35.4074 136.105 35.1139C135.979 34.8204 135.913 34.4522 135.907 34.0085C135.9 33.5655 135.945 33.0659 136.038 32.51C136.133 31.9544 136.246 31.4018 136.377 30.8518C136.509 30.3026 136.644 29.7747 136.783 29.2689C136.92 28.7632 137.033 28.3354 137.121 27.9858C137.222 27.6735 137.19 27.4083 137.027 27.1894C136.864 26.9712 136.66 26.8148 136.415 26.7212C136.17 26.6275 135.922 26.6025 135.671 26.6463C135.42 26.69 135.257 26.8243 135.182 27.0489C134.441 26.412 133.729 26.0685 133.046 26.0186C132.361 25.9687 131.731 26.1187 131.153 26.4683C130.576 26.8179 130.064 27.3236 129.619 27.9858C129.174 28.6479 128.813 29.369 128.536 30.1495C128.26 30.93 128.088 31.7264 128.019 32.5381C127.95 33.3499 128.003 34.09 128.179 34.7581C128.355 35.4262 128.665 35.9728 129.111 36.3971C129.556 36.8218 130.162 37.0343 130.928 37.0343C131.266 37.0343 131.593 36.9656 131.906 36.8282C132.22 36.6906 132.509 36.5283 132.772 36.341C133.036 36.1537 133.268 35.9569 133.469 35.7509C133.67 35.5448 133.827 35.3732 133.94 35.2356C134.027 35.6853 134.172 36.0665 134.373 36.3786C134.573 36.6906 134.802 36.947 135.06 37.1464C135.317 37.3461 135.587 37.4929 135.869 37.5868C136.152 37.6805 136.425 37.7273 136.688 37.7273C137.278 37.7273 137.83 37.5274 138.345 37.1276C138.859 36.7284 139.321 36.2378 139.729 35.6572C140.136 35.0764 140.472 34.4646 140.735 33.8212C140.999 33.1781 141.175 32.6067 141.263 32.1069C141.351 31.9196 141.335 31.7231 141.216 31.5171C141.096 31.311 140.94 31.1582 140.745 31.0579Z" fill="white"/>
<path fill-rule="evenodd" clip-rule="evenodd" d="M174.632 41.4004C174.525 41.8247 174.359 42.1843 174.133 42.4777C173.907 42.771 173.624 42.924 173.286 42.9369C173.072 42.9491 172.909 42.8365 172.796 42.5996C172.683 42.362 172.605 42.0561 172.561 41.6816C172.517 41.3067 172.498 40.8883 172.504 40.4263C172.51 39.9643 172.529 39.5083 172.561 39.0587C172.592 38.6093 172.63 38.1905 172.674 37.8036C172.717 37.4162 172.752 37.117 172.777 36.9045C173.204 36.9544 173.559 37.1383 173.841 37.4571C174.123 37.7755 174.34 38.1532 174.49 38.5905C174.641 39.0276 174.729 39.4993 174.754 40.0047C174.779 40.5106 174.738 40.9757 174.632 41.4004ZM167.817 41.4004C167.71 41.8247 167.544 42.1843 167.318 42.4777C167.092 42.771 166.809 42.924 166.471 42.9369C166.257 42.9491 166.094 42.8365 165.981 42.5996C165.868 42.362 165.79 42.0561 165.746 41.6816C165.702 41.3067 165.683 40.8883 165.69 40.4263C165.695 39.9643 165.714 39.5083 165.746 39.0587C165.777 38.6093 165.815 38.1905 165.859 37.8036C165.903 37.4162 165.937 37.117 165.962 36.9045C166.389 36.9544 166.744 37.1383 167.026 37.4571C167.308 37.7755 167.525 38.1532 167.676 38.5905C167.826 39.0276 167.914 39.4993 167.939 40.0047C167.964 40.5106 167.923 40.9757 167.817 41.4004ZM160.823 30.7598C160.81 31.0593 160.782 31.3248 160.738 31.5558C160.694 31.7873 160.635 31.9337 160.559 31.9962C160.421 31.9211 160.252 31.7279 160.051 31.4153C159.85 31.1033 159.694 30.7501 159.58 30.3567C159.467 29.9634 159.432 29.5765 159.477 29.1953C159.52 28.8145 159.718 28.5182 160.07 28.3054C160.208 28.2306 160.327 28.2586 160.427 28.3898C160.528 28.521 160.609 28.7114 160.673 28.9612C160.735 29.2112 160.779 29.4983 160.804 29.823C160.829 30.1478 160.835 30.4599 160.823 30.7598ZM159.157 34.4972C158.962 34.703 158.745 34.881 158.507 35.031C158.269 35.1809 158.024 35.2933 157.773 35.3682C157.522 35.4433 157.296 35.4618 157.095 35.4243C156.531 35.3121 156.098 35.0683 155.796 34.6937C155.495 34.3191 155.304 33.879 155.222 33.3733C155.141 32.8673 155.15 32.327 155.251 31.7526C155.351 31.1782 155.52 30.6444 155.759 30.1509C155.997 29.6575 156.286 29.2328 156.625 28.8771C156.963 28.521 157.334 28.2995 157.735 28.2118C157.585 28.8487 157.535 29.5078 157.585 30.1883C157.635 30.8689 157.798 31.509 158.074 32.1083C158.25 32.4711 158.46 32.8016 158.705 33.1013C158.95 33.4013 159.248 33.6573 159.599 33.8695C159.499 34.082 159.351 34.2911 159.157 34.4972ZM179.987 30.9471C180.025 30.66 180.081 30.3567 180.157 30.0383C180.232 29.72 180.326 29.4109 180.439 29.1111C180.552 28.8112 180.684 28.5522 180.835 28.3337C180.986 28.1153 181.145 27.9589 181.315 27.8653C181.484 27.7716 181.657 27.7809 181.832 27.8933C182.021 28.006 182.137 28.2432 182.18 28.6051C182.224 28.9676 182.18 29.3545 182.049 29.7669C181.917 30.179 181.682 30.5662 181.343 30.9281C181.004 31.2908 180.546 31.5278 179.969 31.6402C179.943 31.4655 179.95 31.2345 179.987 30.9471ZM187.574 30.9471C187.612 30.66 187.668 30.3567 187.744 30.0383C187.819 29.72 187.913 29.4109 188.026 29.1111C188.139 28.8112 188.271 28.5522 188.421 28.3337C188.572 28.1153 188.732 27.9589 188.902 27.8653C189.071 27.7716 189.244 27.7809 189.419 27.8933C189.608 28.006 189.723 28.2432 189.767 28.6051C189.811 28.9676 189.767 29.3545 189.636 29.7669C189.504 30.179 189.269 30.5662 188.93 30.9281C188.591 31.2908 188.133 31.5278 187.556 31.6402C187.53 31.4655 187.537 31.2345 187.574 30.9471ZM194.625 32.043C194.48 31.8871 194.305 31.7778 194.098 31.715C193.89 31.6527 193.693 31.6466 193.504 31.6965C193.316 31.7464 193.197 31.8776 193.147 32.0898C193.046 32.4896 192.886 32.8986 192.667 33.3167C192.447 33.7354 192.177 34.1319 191.857 34.5064C191.537 34.881 191.176 35.2123 190.775 35.4994C190.373 35.7867 189.953 35.9928 189.514 36.1173C189.074 36.2552 188.71 36.2706 188.421 36.1644C188.133 36.0584 187.904 35.8773 187.734 35.6213C187.565 35.3651 187.443 35.0562 187.367 34.6937C187.292 34.3318 187.248 33.9572 187.236 33.5698C187.951 33.6199 188.588 33.4921 189.146 33.1857C189.705 32.8798 190.179 32.4736 190.568 31.9679C190.957 31.4624 191.252 30.8941 191.452 30.2634C191.653 29.6326 191.766 29.0051 191.792 28.3805C191.804 27.7935 191.716 27.297 191.528 26.8911C191.34 26.4854 191.086 26.1698 190.766 25.9452C190.445 25.7201 190.078 25.5891 189.664 25.5516C189.25 25.514 188.829 25.5706 188.403 25.7201C187.888 25.8953 187.452 26.1793 187.095 26.5726C186.737 26.9662 186.439 27.4223 186.2 27.9402C185.961 28.4587 185.773 29.0173 185.635 29.6169C185.497 30.2163 185.397 30.8067 185.334 31.3873C185.273 31.9508 185.24 32.4901 185.233 33.0063C185.185 33.1092 185.134 33.2126 185.08 33.3167C184.86 33.7354 184.59 34.1319 184.27 34.5064C183.951 34.881 183.589 35.2123 183.188 35.4994C182.786 35.7867 182.366 35.9928 181.927 36.1173C181.487 36.2552 181.123 36.2706 180.835 36.1644C180.546 36.0584 180.317 35.8773 180.148 35.6213C179.978 35.3651 179.856 35.0562 179.781 34.6937C179.705 34.3318 179.661 33.9572 179.649 33.5698C180.364 33.6199 181.001 33.4921 181.56 33.1857C182.118 32.8798 182.592 32.4736 182.981 31.9679C183.37 31.4624 183.665 30.8941 183.865 30.2634C184.066 29.6326 184.18 29.0051 184.204 28.3805C184.217 27.7935 184.129 27.297 183.941 26.8911C183.753 26.4854 183.498 26.1698 183.178 25.9452C182.858 25.7201 182.491 25.5891 182.077 25.5516C181.663 25.514 181.242 25.5706 180.816 25.7201C180.301 25.8953 179.865 26.1793 179.508 26.5726C179.15 26.9662 178.852 27.4223 178.613 27.9402C178.375 28.4587 178.187 29.0173 178.049 29.6169C177.91 30.2163 177.81 30.8067 177.747 31.3873C177.712 31.7148 177.688 32.0323 177.67 32.3441C177.549 32.4468 177.431 32.5502 177.305 32.6517C176.872 33.0015 176.417 33.3167 175.94 33.5978C175.463 33.879 174.967 34.11 174.453 34.2911C173.938 34.4722 173.411 34.5815 172.871 34.6189L174.039 22.1796C174.114 21.9172 174.076 21.6864 173.926 21.4865C173.775 21.2867 173.58 21.1493 173.342 21.0744C173.104 20.9993 172.849 21.0057 172.58 21.093C172.309 21.1807 172.087 21.3805 171.911 21.6923C171.823 22.1672 171.732 22.8165 171.638 23.6407C171.544 24.465 171.45 25.3643 171.356 26.3385C171.262 27.3127 171.168 28.318 171.074 29.3545C170.979 30.3914 170.898 31.3593 170.829 32.2583C170.826 32.2983 170.823 32.3344 170.82 32.3738C170.71 32.4665 170.604 32.5599 170.49 32.6517C170.057 33.0015 169.602 33.3167 169.125 33.5978C168.648 33.879 168.152 34.11 167.638 34.2911C167.123 34.4722 166.596 34.5815 166.056 34.6189L167.224 22.1796C167.299 21.9172 167.261 21.6864 167.111 21.4865C166.96 21.2867 166.765 21.1493 166.527 21.0744C166.289 20.9993 166.034 21.0057 165.765 21.093C165.495 21.1807 165.272 21.3805 165.096 21.6923C165.008 22.1672 164.918 22.8165 164.824 23.6407C164.729 24.465 164.635 25.3643 164.541 26.3385C164.447 27.3127 164.353 28.318 164.259 29.3545C164.165 30.3914 164.083 31.3593 164.014 32.2583C164.012 32.2764 164.011 32.2928 164.01 32.3109C163.813 32.4019 163.598 32.4818 163.364 32.5488C163.126 32.6177 162.856 32.6583 162.555 32.6707C162.605 32.4456 162.646 32.1958 162.677 31.9211C162.708 31.6466 162.734 31.3593 162.753 31.0593C162.772 30.7598 162.778 30.4599 162.772 30.1602C162.765 29.8603 162.749 29.5858 162.725 29.3357C162.661 28.7991 162.546 28.29 162.376 27.809C162.207 27.3284 161.978 26.9258 161.689 26.6007C161.4 26.276 161.04 26.0574 160.606 25.9452C160.173 25.8327 159.668 25.8701 159.091 26.0574C158.237 25.9452 157.469 26.0234 156.785 26.2917C156.101 26.5605 155.507 26.9505 155.006 27.4624C154.504 27.9749 154.093 28.5771 153.773 29.2704C153.453 29.9634 153.239 30.6755 153.133 31.4058C153.087 31.7155 153.065 32.0238 153.059 32.3313C152.864 32.7273 152.652 33.0733 152.417 33.3637C152.085 33.7758 151.739 34.1131 151.382 34.3752C151.024 34.6376 150.669 34.8375 150.318 34.9749C149.967 35.1125 149.653 35.2061 149.377 35.2558C149.051 35.3183 148.737 35.3247 148.436 35.2746C148.134 35.2249 147.858 35.0811 147.608 34.8437C147.406 34.669 147.253 34.3878 147.146 34.0007C147.039 33.6135 146.977 33.1736 146.958 32.68C146.939 32.1865 146.958 31.6713 147.014 31.1344C147.071 30.5975 147.168 30.0884 147.306 29.6076C147.444 29.1268 147.619 28.696 147.833 28.3147C148.046 27.9342 148.297 27.6623 148.586 27.5C148.749 27.5252 148.85 27.6217 148.888 27.7902C148.925 27.9589 148.934 28.1588 148.915 28.3898C148.897 28.6211 148.869 28.8583 148.831 29.1016C148.793 29.3453 148.774 29.5485 148.774 29.7105C148.837 30.0478 148.959 30.3102 149.142 30.4974C149.323 30.6847 149.528 30.7943 149.753 30.8252C149.979 30.8566 150.202 30.8036 150.422 30.666C150.641 30.5288 150.82 30.3102 150.958 30.0102C150.971 30.0228 150.99 30.029 151.015 30.029L151.278 27.65C151.353 27.3251 151.303 27.038 151.128 26.7882C150.952 26.5384 150.72 26.3946 150.431 26.3573C150.067 25.8327 149.574 25.5549 148.953 25.5236C148.332 25.4924 147.695 25.6954 147.042 26.1325C146.641 26.42 146.286 26.8162 145.979 27.322C145.671 27.828 145.42 28.3898 145.226 29.008C145.031 29.6262 144.893 30.2791 144.812 30.9659C144.73 31.6527 144.714 32.3211 144.764 32.9702C144.815 33.6199 144.931 34.2319 145.113 34.8061C145.295 35.3808 145.549 35.8616 145.875 36.2485C146.152 36.5858 146.465 36.8327 146.816 36.9889C147.168 37.145 147.535 37.2415 147.918 37.2791C148.301 37.3164 148.68 37.3007 149.057 37.2322C149.433 37.1638 149.791 37.0671 150.13 36.9418C150.569 36.7797 151.021 36.5734 151.485 36.3236C151.95 36.0741 152.395 35.7742 152.822 35.4243C153.047 35.2403 153.263 35.0398 153.472 34.8247C153.567 35.0595 153.673 35.2867 153.801 35.4994C154.14 36.0612 154.598 36.5173 155.175 36.8669C155.752 37.2165 156.462 37.3848 157.302 37.3727C158.206 37.3601 159.041 37.1324 159.806 36.6889C160.572 36.2459 161.199 35.5928 161.689 34.7312C162.422 34.7312 163.144 34.611 163.853 34.3722C163.847 34.4477 163.84 34.5273 163.835 34.6003C163.785 35.2622 163.76 35.7116 163.76 35.9491C163.747 36.3612 163.719 36.87 163.675 37.4756C163.631 38.0814 163.603 38.7184 163.59 39.3863C163.578 40.0545 163.603 40.7291 163.666 41.4098C163.729 42.0902 163.86 42.7087 164.061 43.2647C164.261 43.82 164.547 44.2918 164.918 44.6792C165.287 45.0659 165.774 45.2973 166.377 45.3722C167.017 45.4592 167.569 45.3471 168.033 45.0349C168.497 44.7224 168.874 44.2949 169.163 43.7518C169.452 43.2083 169.655 42.5808 169.775 41.8691C169.894 41.1569 169.928 40.442 169.878 39.7236C169.828 39.0055 169.696 38.3281 169.483 37.6914C169.269 37.0542 168.974 36.5297 168.598 36.1173C168.824 36.0553 169.094 35.9367 169.408 35.7616C169.721 35.5869 170.044 35.3901 170.377 35.1714C170.459 35.1177 170.539 35.0611 170.621 35.006C170.59 35.4485 170.575 35.7642 170.575 35.9491C170.562 36.3612 170.534 36.87 170.49 37.4756C170.446 38.0814 170.418 38.7184 170.405 39.3863C170.393 40.0545 170.418 40.7291 170.481 41.4098C170.543 42.0902 170.675 42.7087 170.876 43.2647C171.076 43.82 171.362 44.2918 171.732 44.6792C172.102 45.0659 172.589 45.2973 173.192 45.3722C173.831 45.4592 174.383 45.3471 174.848 45.0349C175.312 44.7224 175.689 44.2949 175.978 43.7518C176.266 43.2083 176.47 42.5808 176.589 41.8691C176.709 41.1569 176.743 40.442 176.693 39.7236C176.643 39.0055 176.511 38.3281 176.298 37.6914C176.084 37.0542 175.79 36.5297 175.413 36.1173C175.639 36.0553 175.909 35.9367 176.222 35.7616C176.536 35.5869 176.859 35.3901 177.192 35.1714C177.365 35.0578 177.536 34.9407 177.708 34.8202C177.772 35.4309 177.911 35.9667 178.133 36.4173C178.403 36.967 178.77 37.3915 179.234 37.6914C179.698 37.9909 180.245 38.1565 180.873 38.1876C181.5 38.2185 182.184 38.1033 182.925 37.8409C183.477 37.6413 183.956 37.3915 184.364 37.0918C184.772 36.7918 185.139 36.4265 185.466 35.9959C185.485 35.9709 185.502 35.9438 185.521 35.9187C185.579 36.0936 185.643 36.2616 185.72 36.4173C185.99 36.967 186.357 37.3915 186.821 37.6914C187.285 37.9909 187.832 38.1565 188.459 38.1876C189.087 38.2185 189.771 38.1033 190.511 37.8409C191.064 37.6413 191.543 37.3915 191.951 37.0918C192.359 36.7918 192.726 36.4265 193.053 35.9959C193.379 35.5648 193.677 35.0683 193.947 34.5064C194.217 33.9443 194.49 33.3014 194.766 32.5768C194.816 32.3772 194.769 32.1992 194.625 32.043Z" fill="white"/>
</g>
<defs>
<clipPath id="clip0_724_162">
<rect width="214" height="60" fill="white"/>
</clipPath>
</defs>
</svg>
